<?xml version="1.0" standalone="no"?>
<!DOCTYPE svg PUBLIC "-//W3C//DTD SVG 20010904//EN"
 "http://www.w3.org/TR/2001/REC-SVG-20010904/DTD/svg10.dtd">
<svg version="1.0" xmlns="http://www.w3.org/2000/svg"
 width="1024.000000pt" height="1024.000000pt" viewBox="0 0 1024.000000 1024.000000"
 preserveAspectRatio="xMidYMid meet">

<g transform="translate(0.000000,1024.000000) scale(0.100000,-0.100000)"
fill="#000000" stroke="none">
<path d="M7397 10070 c-14 -36 -37 -125 -37 -139 1 -9 12 18 25 59 14 41 23
80 21 85 -2 6 -6 3 -9 -5z"/>
<path d="M7346 9879 c-3 -18 -4 -34 -2 -36 2 -3 7 10 11 27 4 17 5 34 2 36 -2
3 -7 -10 -11 -27z"/>
<path d="M8106 9887 c-20 -30 -59 -175 -52 -193 3 -8 2 -13 -2 -10 -5 3 -28
-60 -53 -139 l-46 -143 29 21 c15 11 31 18 35 14 3 -4 1 -7 -6 -7 -7 0 -9 -4
-6 -10 3 -5 0 -7 -8 -4 -15 5 -34 -13 -24 -22 12 -12 48 19 67 56 19 38 18 45
-4 41 -5 -1 -4 5 4 13 14 18 25 22 15 6 -3 -5 -2 -10 3 -10 5 0 20 25 32 56
13 30 40 82 62 115 21 33 35 65 32 71 -4 6 -3 8 3 5 15 -9 33 38 33 87 0 51
-16 69 -66 73 -26 2 -37 -3 -48 -20z m50 -6 c2 -7 0 -7 -3 -1 -3 7 -9 8 -17 1
-9 -8 -13 -7 -13 3 0 17 30 14 33 -3z"/>
<path d="M2174 9726 c-10 -26 15 -81 62 -137 53 -62 60 -70 49 -49 -5 8 -25
55 -46 104 -36 90 -54 112 -65 82z"/>
<path d="M7311 9724 c0 -11 3 -14 6 -6 3 7 2 16 -1 19 -3 4 -6 -2 -5 -13z"/>
<path d="M7301 9674 c0 -11 3 -14 6 -6 3 7 2 16 -1 19 -3 4 -6 -2 -5 -13z"/>
<path d="M9014 9657 c-28 -30 -46 -79 -42 -113 l3 -29 38 38 c20 21 41 52 45
70 16 58 -6 74 -44 34z"/>
<path d="M7028 9634 c-16 -8 -28 -19 -28 -25 0 -6 5 -6 13 1 6 6 21 17 32 25
26 19 17 18 -17 -1z"/>
<path d="M7059 9623 c-13 -16 -12 -17 4 -4 9 7 17 15 17 17 0 8 -8 3 -21 -13z"/>
<path d="M6907 9613 c-11 -11 14 -33 37 -32 18 1 18 2 -7 13 -15 7 -24 15 -21
19 4 4 5 7 2 7 -2 0 -8 -3 -11 -7z"/>
<path d="M6868 9603 c7 -3 16 -2 19 1 4 3 -2 6 -13 5 -11 0 -14 -3 -6 -6z"/>
<path d="M6646 9586 c3 -8 -4 -25 -15 -37 -12 -13 -21 -27 -21 -31 0 -5 -5 -6
-12 -2 -6 4 -8 3 -4 -4 3 -6 0 -14 -7 -19 -20 -12 -51 -63 -39 -63 6 0 10 -9
9 -20 -1 -15 -6 -18 -24 -14 -13 4 -23 2 -23 -4 0 -15 -42 -23 -57 -10 -7 6
-13 7 -13 3 0 -4 -7 -2 -15 5 -11 9 -19 10 -27 2 -7 -7 -26 -5 -63 8 -46 16
-56 16 -72 5 -10 -9 -13 -14 -5 -15 6 0 12 -9 12 -21 0 -14 -5 -19 -17 -17
-10 2 -17 10 -15 17 1 7 -2 10 -8 6 -6 -3 -7 -12 -3 -18 12 -20 12 -56 0 -53
-7 1 -9 1 -4 -1 10 -6 9 -33 -1 -33 -5 0 -31 6 -58 14 -27 8 -74 17 -104 21
-30 4 -68 13 -85 20 -16 6 -45 12 -62 13 -30 1 -221 23 -338 39 -27 4 -63 6
-78 5 -22 -2 -26 0 -16 11 14 14 49 17 49 4 0 -4 5 -5 10 -2 14 9 3 24 -18 24
-9 0 -26 2 -37 5 -11 2 -28 5 -37 5 -10 1 -17 7 -15 13 3 17 -41 22 -59 7 -12
-10 -15 -10 -12 2 2 8 -7 15 -19 17 -16 2 -23 -2 -23 -13 0 -9 -4 -14 -9 -10
-5 3 -16 -3 -23 -14 -12 -16 -28 -19 -123 -20 -326 -5 -794 -69 -1074 -146
-51 -15 -100 -24 -108 -21 -8 3 -12 2 -9 -3 3 -4 -16 -15 -42 -24 -109 -36
-275 -98 -391 -146 -68 -28 -128 -48 -132 -45 -5 3 -9 1 -9 -4 0 -4 -21 -18
-47 -30 -140 -63 -214 -101 -248 -129 -12 -10 -36 -26 -53 -35 -30 -16 -32
-16 -42 2 -7 13 -16 17 -28 13 -14 -5 -13 -2 5 18 23 26 26 69 5 88 -10 10
-11 6 -7 -18 4 -22 2 -29 -8 -25 -8 3 -13 -5 -15 -23 -1 -15 -7 -30 -13 -34
-7 -4 -6 -8 4 -12 20 -8 29 -47 10 -47 -8 0 -11 5 -8 10 3 6 -1 13 -10 16 -12
5 -15 14 -11 30 4 14 0 34 -9 48 -10 15 -13 34 -10 49 6 22 3 24 -22 23 -22
-1 -31 6 -45 34 -9 19 -17 30 -18 24 0 -8 -14 -7 -47 1 -39 10 -48 17 -47 34
0 11 -4 21 -9 21 -5 0 -7 -11 -4 -25 3 -21 -1 -29 -24 -41 -28 -14 -30 -13
-37 6 -4 12 -12 20 -16 18 -12 -4 -42 55 -38 74 3 13 -50 172 -69 211 -17 31
-17 37 -4 37 18 0 19 15 3 61 -25 76 -73 110 -106 77 -21 -21 -13 -56 28 -138
22 -44 52 -114 66 -157 14 -43 42 -109 63 -148 30 -57 61 -151 66 -200 1 -21
17 -55 25 -55 14 0 20 -43 8 -58 -10 -11 -8 -13 10 -10 11 1 22 -1 22 -7 1 -5
6 -16 12 -22 7 -9 7 -13 -1 -13 -7 0 -10 -4 -6 -10 3 -5 -7 -5 -25 1 -19 7
-30 18 -30 29 0 11 -4 22 -10 25 -15 10 -12 35 5 35 18 0 20 16 2 23 -18 7
-55 -22 -40 -31 12 -7 19 -32 30 -105 3 -21 12 -41 19 -44 23 -9 16 -18 -52
-67 -48 -34 -69 -45 -77 -37 -8 8 -5 11 11 11 24 0 27 8 11 30 -9 13 -10 13
-6 -1 4 -12 -2 -18 -21 -22 -32 -6 -38 -2 -26 16 5 7 -1 2 -12 -11 -14 -16
-24 -20 -28 -13 -11 17 -22 13 -34 -11 l-11 -23 0 23 c-1 21 -2 22 -17 8 -20
-20 -34 -20 -34 0 0 8 4 13 9 10 5 -3 11 0 14 7 3 7 -4 12 -19 12 -23 0 -27
-16 -11 -42 5 -7 5 -13 0 -13 -4 0 -1 -5 7 -10 13 -8 13 -10 -2 -10 -19 0 -33
17 -33 42 0 10 -4 17 -9 17 -5 0 -13 5 -17 13 -7 10 -9 9 -9 -4 0 -9 7 -18 15
-20 13 -3 13 -7 2 -28 -8 -14 -12 -32 -10 -40 3 -9 -4 -5 -15 8 -21 23 -38 30
-26 10 5 -8 2 -9 -12 -4 -15 6 -14 3 5 -18 l24 -26 -22 0 c-14 0 -20 4 -16 13
4 6 0 4 -8 -5 -8 -10 -19 -18 -26 -18 -6 0 -11 -5 -11 -11 0 -6 -9 -9 -20 -6
-12 3 -24 -1 -30 -11 -5 -10 -10 -12 -10 -5 0 6 -9 14 -20 18 -11 3 -19 9 -18
13 4 12 -22 53 -30 48 -8 -4 -66 56 -70 73 -10 48 -113 176 -171 212 -75 48
-152 33 -231 -44 -18 -18 -18 -18 -25 2 -3 12 -3 30 0 41 7 22 -41 129 -94
213 -23 35 -37 47 -55 47 -53 0 -74 -86 -35 -149 29 -48 75 -94 96 -97 51 -7
56 -11 58 -44 2 -18 9 -37 16 -42 11 -8 11 -9 -1 -5 -25 6 -48 -25 -49 -68 0
-50 16 -106 36 -122 48 -38 133 -127 133 -139 0 -5 66 -87 95 -120 6 -6 15 -9
22 -7 6 2 15 -6 18 -19 4 -13 13 -26 19 -30 8 -6 7 -8 -1 -8 -7 0 -13 -7 -13
-16 0 -8 -5 -25 -12 -37 -7 -12 -13 -26 -14 -32 0 -5 -2 -16 -2 -22 -1 -7 -12
-13 -23 -13 -16 0 -19 -3 -11 -12 6 -7 11 -17 12 -23 3 -17 10 -19 10 -2 0 27
18 29 36 2 12 -19 14 -28 5 -38 -6 -8 -7 -17 -3 -21 4 -4 7 -12 7 -17 0 -5 3
-9 8 -9 4 0 19 -12 32 -26 26 -28 32 -39 15 -29 -6 4 -10 -7 -10 -24 0 -24 4
-31 19 -31 16 0 18 -5 14 -31 -4 -26 -2 -31 11 -26 9 4 16 2 16 -3 0 -6 -3
-10 -7 -10 -10 0 -10 -66 -1 -76 4 -4 -4 -21 -17 -38 -14 -17 -29 -35 -33 -41
-16 -20 -131 -192 -182 -272 -50 -81 -78 -106 -65 -60 4 12 13 27 19 32 13 11
36 49 36 61 0 4 -10 -6 -22 -22 -12 -16 -26 -31 -30 -34 -4 -3 -11 -18 -17
-33 -6 -15 -16 -26 -22 -25 -6 2 -14 -3 -17 -11 -3 -8 0 -11 7 -7 6 4 11 2 11
-4 0 -7 -7 -9 -16 -6 -12 5 -15 2 -10 -9 3 -9 -17 -56 -49 -111 -83 -144 -102
-183 -120 -254 0 -3 -13 -42 -28 -87 -15 -45 -27 -90 -27 -100 -1 -10 -12 -61
-25 -113 l-25 -95 5 70 c2 42 0 62 -5 50 -13 -33 -39 -50 -52 -37 -7 7 -20 12
-29 12 -10 0 -30 15 -45 33 -23 27 -24 33 -10 35 10 2 13 8 9 15 -4 7 -8 16
-8 21 0 14 -40 14 -60 0 -16 -12 -16 -15 6 -45 18 -26 19 -31 6 -26 -9 3 -19
2 -22 -2 -3 -5 1 -11 9 -14 11 -4 12 -14 6 -40 -4 -19 -4 -41 1 -48 14 -24
-28 -42 -79 -35 -47 6 -47 6 -18 -9 16 -8 46 -18 67 -21 44 -7 56 -27 35 -59
-8 -12 -17 -43 -21 -68 -4 -26 -14 -51 -22 -56 -11 -6 -12 -10 -4 -15 17 -11
13 -26 -6 -19 -10 4 -14 2 -10 -4 4 -6 1 -18 -6 -25 -8 -7 -14 -25 -13 -38 1
-24 -2 -25 -48 -22 -57 3 -92 -23 -81 -59 6 -17 13 -20 36 -15 21 4 29 2 29
-9 0 -20 -21 -30 -31 -14 -7 11 -10 9 -15 -8 -4 -13 -13 -23 -20 -23 -8 0 -17
-7 -20 -15 -4 -10 -20 -15 -44 -15 -21 0 -43 -7 -50 -15 -15 -19 -36 -19 -43
-2 -6 15 -94 43 -104 33 -3 -3 3 -6 15 -6 23 0 40 -19 25 -29 -6 -3 -9 -22 -8
-41 4 -51 4 -52 13 -46 4 2 9 -9 10 -25 1 -16 -3 -29 -8 -29 -6 0 -9 4 -6 9 3
5 -1 12 -10 15 -22 9 -24 8 -24 -9 0 -9 11 -20 24 -26 13 -6 27 -20 29 -31 3
-11 10 -17 15 -14 5 3 17 -3 27 -14 10 -11 22 -20 27 -20 5 0 22 -10 37 -21
16 -12 34 -18 40 -15 5 4 14 -2 20 -12 8 -14 6 -18 -11 -19 -40 -3 -81 -63
-42 -63 10 0 12 -5 7 -12 -4 -7 -8 -29 -9 -49 -1 -20 -10 -61 -20 -92 -15 -49
-16 -62 -5 -99 20 -64 70 -98 123 -85 12 4 28 1 35 -5 9 -7 13 -7 13 1 0 16
86 7 107 -11 13 -10 17 -10 20 0 7 18 23 4 23 -19 0 -10 4 -19 9 -19 6 0 12
-15 14 -32 l4 -33 2 30 c1 17 10 41 20 54 18 23 18 22 25 -95 4 -66 8 -132 9
-148 1 -16 -4 -31 -10 -33 -9 -3 -13 7 -13 33 0 20 -3 35 -6 31 -3 -3 -6 -45
-6 -94 -1 -63 -3 -78 -8 -53 -8 39 -10 39 -16 -9 -6 -45 -11 -50 -23 -20 -27
67 2 -210 30 -291 7 -19 20 -55 30 -80 9 -25 29 -85 43 -135 27 -93 88 -257
93 -251 2 2 -10 45 -27 96 -38 112 -34 131 5 23 15 -43 34 -91 41 -108 21 -49
44 -107 44 -112 0 -2 -4 -1 -10 2 -12 7 -13 -7 -2 -20 5 -6 14 -34 21 -62 11
-45 11 -55 -2 -68 -9 -8 -20 -15 -26 -15 -6 0 -11 -5 -11 -12 0 -6 -8 -4 -19
6 -17 16 -18 16 -14 -8 5 -24 3 -25 -32 -19 -28 4 -36 3 -31 -5 4 -7 13 -12
19 -12 7 0 24 -15 39 -34 l28 -35 -24 5 c-13 2 -29 -2 -36 -11 -7 -8 -17 -12
-24 -8 -7 3 -6 1 1 -7 10 -11 10 -17 -3 -31 -15 -17 -14 -21 6 -54 12 -19 18
-35 15 -35 -4 0 -2 -7 5 -15 9 -10 9 -15 1 -15 -6 0 -11 -4 -11 -10 0 -5 11
-10 24 -10 14 0 27 -3 29 -7 3 -5 -28 -9 -69 -10 -41 -1 -82 -7 -91 -13 -14
-9 -10 -10 22 -5 35 5 38 4 23 -8 -15 -12 -13 -15 18 -32 38 -21 41 -36 24
-140 -5 -32 -6 -62 -1 -65 18 -12 17 -36 -2 -58 -11 -12 -15 -22 -9 -22 6 0
14 5 17 10 5 8 11 7 21 -1 11 -9 11 -13 -1 -26 -20 -20 -19 -30 5 -36 17 -4
20 -2 16 16 -3 12 -3 16 0 10 3 -7 14 -13 25 -13 11 0 19 -7 19 -16 0 -8 5
-12 11 -8 6 3 14 2 18 -5 5 -7 19 -2 43 14 47 32 54 31 61 -5 4 -16 18 -48 32
-70 14 -22 22 -40 18 -40 -13 0 37 -40 62 -50 33 -13 28 -22 -60 -97 -96 -82
-169 -129 -256 -164 -40 -16 -96 -45 -124 -63 -27 -19 -110 -57 -183 -87 -145
-57 -226 -102 -219 -122 8 -22 57 -9 137 37 89 52 181 89 290 117 41 11 83 22
93 25 31 10 18 -16 -18 -33 -24 -12 -31 -19 -23 -25 18 -11 64 0 123 29 42 22
54 24 80 14 17 -6 38 -11 46 -11 8 0 70 38 138 85 123 84 146 94 180 76 9 -5
23 -6 31 -1 8 5 19 3 27 -6 15 -15 8 -38 -8 -29 -14 9 -29 -41 -23 -75 4 -19
2 -30 -5 -30 -6 0 -10 -4 -9 -9 2 -5 -6 -16 -17 -24 -17 -13 -18 -18 -7 -42
14 -31 9 -43 -11 -27 -8 7 -17 9 -20 5 -13 -12 -7 -23 14 -23 18 0 19 -2 6
-21 -8 -11 -12 -29 -10 -40 4 -14 1 -20 -8 -19 -8 1 -22 2 -33 1 -15 -1 -16
-4 -6 -16 9 -11 16 -12 26 -4 18 15 33 3 27 -21 -4 -13 -14 -20 -30 -20 -13 0
-38 -7 -55 -16 -19 -10 -44 -14 -63 -11 -22 4 -44 -2 -73 -18 -23 -13 -52 -26
-64 -30 -61 -18 -146 -68 -161 -94 -31 -53 -17 -115 33 -144 38 -23 45 -22 90
10 29 21 41 37 45 63 4 25 15 41 38 55 151 91 197 116 197 105 0 -6 -12 -16
-27 -23 -16 -6 -39 -23 -53 -36 l-25 -24 25 17 c13 9 31 16 38 16 8 0 30 14
49 30 33 30 63 39 63 20 0 -5 -6 -10 -12 -11 -7 0 -1 -5 15 -11 29 -10 37 -28
12 -28 -9 0 -18 -7 -21 -14 -7 -18 26 -77 38 -70 4 3 8 0 8 -5 0 -6 7 -11 15
-11 8 0 15 -4 15 -10 0 -5 6 -7 14 -4 8 3 17 1 21 -5 3 -6 17 -11 31 -11 21 0
23 -3 14 -19 -5 -11 -10 -28 -10 -39 0 -11 -9 -31 -20 -45 -11 -14 -35 -52
-54 -84 -18 -32 -50 -85 -70 -117 -37 -62 -45 -82 -24 -70 7 4 8 3 4 -5 -4 -6
-11 -9 -16 -6 -5 3 -14 -3 -19 -14 -14 -25 -14 -81 -1 -81 15 0 66 96 87 161
16 52 20 57 41 52 20 -5 27 5 67 90 46 96 52 117 36 117 -5 0 -3 14 5 30 14
28 43 38 86 31 11 -1 10 7 -3 31 -11 20 -10 20 12 5 21 -15 23 -15 36 1 12 15
13 13 7 -13 -4 -16 -8 -32 -10 -34 -2 -2 3 -9 11 -15 9 -6 19 -31 23 -56 l9
-45 9 44 c10 48 39 74 109 96 9 2 18 13 22 22 13 35 44 45 35 11 -3 -14 -2
-19 7 -14 6 4 18 0 27 -8 14 -15 14 -16 -3 -16 -15 0 -16 -2 -3 -10 25 -16 33
-11 28 15 -5 22 -3 25 16 19 34 -10 41 -10 38 4 -1 6 2 12 8 12 5 0 10 -4 10
-8 0 -4 9 -8 20 -9 11 -1 20 2 20 7 0 5 6 8 13 5 6 -2 44 -6 82 -8 39 -3 62
-3 53 0 -10 2 -18 9 -18 14 0 4 12 3 28 -3 37 -16 38 -18 22 -28 -10 -6 -3
-10 23 -15 35 -7 41 -14 38 -42 -1 -7 3 -13 9 -13 6 0 8 4 5 10 -10 17 7 11
24 -8 9 -10 24 -21 34 -25 16 -6 26 -50 10 -45 -9 3 -13 -5 -13 -23 0 -8 4 -8
13 -1 10 9 12 4 11 -21 -1 -18 -2 -35 -3 -40 -1 -4 -13 -12 -28 -18 -20 -7
-23 -13 -15 -21 7 -7 12 -18 12 -25 0 -22 -20 -14 -30 12 -10 26 -22 35 -18
13 2 -7 -5 -12 -14 -13 -9 0 -24 -9 -32 -20 -17 -22 -21 -39 -8 -31 4 2 13 1
20 -3 10 -6 10 -22 0 -78 -11 -65 -10 -73 9 -106 l21 -35 -47 -58 c-92 -114
-184 -248 -193 -281 -12 -46 -2 -75 25 -71 28 4 139 169 169 250 11 32 22 58
23 58 1 0 15 -20 30 -45 16 -24 32 -42 36 -40 4 3 12 -2 19 -10 8 -10 31 -15
69 -15 44 0 65 6 95 26 43 30 106 96 121 128 15 31 37 56 47 50 4 -3 8 0 8 6
0 6 12 15 26 21 22 8 30 6 46 -10 10 -11 25 -18 33 -15 8 4 15 1 15 -5 0 -15
30 -14 30 2 1 7 6 4 15 -7 8 -10 19 -15 26 -10 8 4 10 3 5 -5 -8 -12 39 -56
59 -56 5 0 16 -6 23 -13 8 -7 29 -11 48 -9 23 3 34 0 34 -9 0 -17 32 -34 62
-34 13 0 29 -5 35 -11 8 -8 17 -8 31 0 28 15 35 14 29 -3 -7 -17 25 -27 44
-15 10 6 11 9 2 9 -21 0 -15 17 8 23 12 3 18 10 14 16 -3 6 -9 9 -13 7 -4 -2
-13 2 -20 10 -7 8 -8 14 -2 14 5 0 10 10 10 23 0 27 -34 67 -56 67 -10 0 -14
6 -11 14 3 8 -1 17 -9 20 -21 8 3 56 25 49 42 -15 -11 18 -74 46 -38 17 -65
31 -60 31 6 0 47 -16 93 -37 82 -36 83 -37 61 -53 -15 -12 -18 -19 -10 -24 7
-4 19 -2 28 6 15 11 16 11 10 -5 -7 -19 5 -21 38 -7 18 7 18 9 -9 19 -16 6
-26 14 -24 17 8 7 58 -17 58 -28 0 -5 6 -8 13 -7 16 3 97 -22 97 -30 0 -4 8
-7 18 -8 9 -1 78 -22 152 -47 74 -24 174 -57 222 -72 77 -24 86 -29 77 -45
-13 -25 -11 -30 7 -27 10 2 19 -3 21 -10 3 -7 -1 -10 -11 -6 -12 5 -16 0 -16
-20 0 -14 5 -26 11 -26 8 0 8 -5 -1 -15 -8 -10 -9 -15 -2 -15 6 0 16 8 21 17
10 17 10 17 11 1 0 -10 4 -18 9 -18 14 0 23 -32 11 -44 -16 -16 -12 -35 8 -31
9 2 20 4 25 4 4 1 7 5 7 11 0 5 -8 6 -17 3 -15 -6 -16 -4 -6 9 7 8 10 19 6 24
-4 5 -2 4 6 -3 7 -6 20 -9 29 -6 9 4 13 2 9 -4 -3 -5 -8 -22 -11 -37 -4 -23
-3 -26 9 -16 8 7 13 16 10 20 -3 5 3 7 12 6 11 -2 18 -12 19 -25 2 -32 14 -39
14 -8 0 17 5 27 15 27 11 0 12 -5 5 -26 -9 -22 -7 -27 11 -31 14 -4 17 -8 9
-13 -10 -6 -9 -13 4 -31 l16 -23 0 21 c0 16 4 21 15 17 18 -7 20 18 5 47 -8
15 -8 19 2 17 16 -4 11 34 -5 44 -9 6 -9 8 0 8 14 0 46 -67 38 -80 -5 -8 61
-7 70 2 9 9 -14 58 -27 57 -10 0 -10 -2 0 -6 21 -8 14 -39 -10 -40 -21 -2 -21
-1 -5 8 14 8 16 14 6 25 -14 17 7 48 28 40 7 -3 20 -3 28 0 12 5 10 10 -8 25
-12 10 -16 18 -9 19 6 0 12 -6 12 -12 0 -7 6 -5 12 6 28 49 58 70 58 40 0 -8
-4 -12 -10 -9 -5 3 -10 -1 -10 -9 0 -9 4 -15 9 -14 4 2 17 -8 28 -21 15 -19
22 -21 28 -11 5 8 4 11 -3 6 -6 -3 -16 2 -21 13 -14 26 -14 31 4 31 8 0 15 5
15 11 0 5 -4 8 -9 4 -5 -3 -12 -1 -16 5 -8 12 25 13 44 1 9 -6 11 -18 7 -35
-6 -23 -3 -26 21 -27 16 -1 30 -1 33 -1 3 0 12 -7 19 -16 13 -14 12 -15 -7
-10 -17 5 -22 2 -22 -13 0 -10 4 -19 10 -19 9 0 7 -42 -5 -71 -3 -9 1 -34 10
-55 8 -20 12 -41 8 -45 -9 -8 -64 -15 -198 -25 -49 -3 -103 -8 -120 -10 -16
-2 -88 -9 -160 -14 -71 -6 -195 -15 -275 -21 -80 -7 -165 -13 -190 -14 -25 -1
-81 -10 -125 -19 -60 -13 -101 -15 -164 -10 -53 4 -82 3 -78 -3 7 -10 -260
-36 -346 -33 -32 1 -47 -3 -42 -9 4 -7 -10 -9 -42 -6 -34 4 -42 3 -28 -4 14
-6 1 -8 -40 -4 -53 4 -58 3 -42 -10 17 -14 16 -15 -3 -20 -11 -3 -18 -1 -14 4
3 5 -18 9 -45 9 -28 0 -51 -4 -51 -10 0 -5 -9 -10 -20 -10 -22 0 -67 -43 -50
-48 5 -2 10 -9 10 -16 0 -11 53 -32 150 -58 25 -6 50 -15 55 -19 6 -4 37 -10
70 -14 33 -4 89 -13 125 -21 96 -21 553 -76 630 -76 14 0 70 -5 125 -11 55 -6
109 -10 120 -10 11 1 99 -5 195 -13 468 -37 878 -47 1660 -38 973 10 941 9
1110 22 80 7 253 19 385 27 132 8 247 18 255 21 8 3 71 9 140 14 217 14 628
87 732 131 26 10 56 19 67 19 12 0 21 6 21 14 0 8 7 17 16 20 26 10 13 49 -21
61 -16 5 -34 15 -40 22 -5 6 -68 21 -140 32 -71 12 -157 26 -190 31 -63 11
-225 31 -260 32 -11 0 -49 4 -85 9 -36 4 -119 11 -185 15 -66 3 -124 9 -130
13 -5 4 -19 6 -30 6 -17 -2 -20 5 -23 49 -5 80 -22 78 -30 -3 -2 -29 -9 -48
-16 -47 -76 16 -140 20 -651 41 -190 7 -225 16 -225 56 0 13 -4 18 -12 13 -6
-4 -17 1 -25 11 -10 15 -13 16 -13 3 0 -12 -11 -15 -57 -13 -71 3 -77 5 -38
15 l30 8 -32 1 c-26 1 -33 -3 -33 -18 0 -11 6 -22 13 -24 7 -3 5 -6 -5 -6 -10
-1 -18 5 -19 12 -5 71 -4 87 9 87 8 0 12 6 8 15 -3 10 1 15 13 15 11 0 22 -6
24 -12 4 -10 6 -10 6 0 2 23 20 12 24 -16 4 -25 4 -24 6 6 0 20 5 31 11 27 6
-4 16 -2 23 3 9 8 12 1 11 -29 0 -22 3 -42 7 -45 4 -2 6 12 3 31 -4 30 -1 35
16 35 11 0 20 7 20 15 0 8 6 14 13 13 7 -2 12 8 13 25 1 16 -4 27 -12 27 -8 0
-14 5 -14 10 0 6 5 9 12 8 6 -2 15 8 19 22 7 23 7 23 8 -7 1 -18 4 -33 9 -33
16 0 52 32 47 41 -10 15 21 10 53 -8 29 -17 69 -12 57 8 -4 6 -13 8 -21 5 -9
-3 -14 1 -14 13 0 10 -7 21 -15 25 -8 3 -12 12 -9 21 7 18 -14 48 -27 39 -6
-3 -8 12 -7 35 2 32 7 40 18 36 13 -4 13 -3 -1 7 -8 7 -15 23 -15 36 0 25 6
27 25 9 11 -10 13 -7 9 15 -4 22 -2 26 14 23 16 -3 18 -1 8 10 -6 8 -19 11
-27 8 -11 -4 -14 -3 -9 6 5 7 14 10 22 7 7 -3 16 -1 19 4 4 6 14 6 27 -1 19
-10 20 -12 5 -21 -22 -12 -21 -25 3 -38 14 -7 20 -7 20 0 0 5 -7 10 -15 10
-23 0 -18 17 8 25 46 15 87 15 87 -1 0 -20 13 -18 27 5 10 15 10 21 0 24 -7 3
-4 6 6 6 9 1 17 8 17 16 0 19 23 15 32 -5 5 -12 8 -10 14 7 3 13 10 20 15 17
5 -3 18 0 29 6 15 8 18 17 13 40 -4 25 -3 29 10 24 11 -4 20 5 32 29 9 19 25
37 36 40 17 4 18 3 8 -9 -13 -16 -2 -19 20 -5 7 5 11 14 7 20 -5 7 -1 9 8 5
11 -4 16 0 16 11 0 14 3 15 15 5 8 -7 21 -10 30 -7 12 5 14 -2 11 -36 -5 -50
0 -61 18 -44 8 6 12 15 10 18 -2 4 12 9 31 11 21 2 35 0 35 -7 0 -6 11 -12 26
-13 14 -1 23 2 19 8 -3 6 1 10 9 10 9 0 16 5 16 11 0 5 -4 8 -9 5 -4 -3 -7 9
-5 27 3 26 -2 38 -21 55 -14 12 -25 26 -25 32 0 14 9 12 28 -6 15 -15 16 -15
23 2 5 13 8 15 8 4 1 -13 3 -13 10 -1 10 16 51 26 51 13 0 -12 53 -7 58 6 5
15 42 16 42 2 0 -5 -4 -10 -10 -10 -5 0 -10 -4 -10 -10 0 -5 9 -10 21 -10 11
0 18 4 14 9 -3 5 -1 12 5 16 6 4 7 11 4 17 -5 8 3 9 26 4 19 -3 30 -3 27 1 -4
4 7 13 25 20 25 11 33 11 40 1 4 -7 8 -9 8 -4 0 5 6 3 13 -3 8 -6 17 -8 20 -4
4 3 7 2 7 -3 0 -6 13 -9 29 -8 18 1 32 -4 35 -12 7 -18 46 -18 46 0 0 8 37 33
85 56 47 23 90 47 97 53 28 27 85 67 96 67 7 0 12 -12 12 -27 1 -16 7 -39 15
-53 8 -14 15 -36 15 -50 1 -40 36 -108 76 -144 21 -19 38 -45 40 -60 1 -14 23
-63 47 -109 48 -90 82 -116 113 -85 24 23 11 52 -89 205 -47 72 -97 154 -112
184 -15 29 -45 77 -67 106 -36 47 -38 54 -25 68 9 8 18 28 22 45 8 37 20 38
34 3 10 -25 10 -25 5 -3 -3 14 -9 59 -14 100 -4 41 -16 99 -28 127 -19 51 -19
52 -1 43 15 -9 17 -8 12 5 -4 11 1 18 17 22 17 4 21 11 17 29 -5 26 3 30 21
12 9 -9 15 -9 24 0 16 16 -17 53 -40 45 -13 -4 -14 -3 -3 5 11 8 10 14 -4 36
-22 33 -13 33 33 0 36 -26 36 -26 11 -2 -31 29 -51 63 -42 72 3 3 21 -4 40
-15 18 -11 33 -17 33 -14 0 4 6 2 13 -4 20 -16 26 -4 17 30 -8 26 -6 29 15 29
17 0 36 -17 69 -62 85 -115 138 -156 169 -130 8 7 17 7 28 -2 20 -14 99 -151
177 -305 86 -170 137 -221 222 -221 31 0 47 6 67 26 23 23 25 31 20 76 -11 86
-64 159 -277 381 -68 70 -142 139 -166 153 -42 25 -50 44 -18 44 8 0 14 5 14
10 0 6 6 10 13 10 45 0 74 135 42 190 -8 14 -24 45 -36 70 -12 25 -31 58 -43
75 l-21 30 33 -23 c18 -13 30 -27 28 -31 -8 -12 30 -30 44 -21 7 5 25 4 39 -1
36 -14 101 -19 101 -8 0 5 3 8 8 8 20 -3 31 2 26 15 -3 7 2 16 11 20 9 3 13 2
10 -4 -3 -6 -1 -10 4 -10 6 0 11 9 11 20 0 12 9 24 23 29 19 8 19 10 5 16 -13
5 -14 12 -6 43 6 20 15 41 22 45 8 6 8 10 -1 14 -7 2 -13 18 -13 33 0 16 -4
32 -10 35 -5 3 -10 15 -10 25 0 13 -5 17 -15 14 -8 -4 -15 -1 -15 5 0 11 -57
38 -96 45 -41 8 -60 -4 -94 -62 -18 -31 -42 -64 -53 -72 -11 -8 -33 -27 -49
-42 -17 -16 -36 -25 -46 -22 -9 2 -7 -1 5 -7 12 -6 23 -20 26 -30 5 -20 -4
-18 -35 9 -22 19 -24 57 -4 49 8 -3 20 1 26 8 10 12 9 16 -3 21 -21 8 -12 63
14 86 23 20 25 38 4 38 -8 0 -15 2 -15 5 0 8 32 57 47 73 14 15 8 36 -8 27 -5
-4 -9 0 -9 7 -1 8 -6 6 -15 -6 -8 -11 -15 -15 -15 -10 0 6 4 14 9 19 5 6 11
35 15 65 6 55 6 55 -9 22 -8 -18 -14 -39 -12 -45 1 -7 -5 -11 -14 -9 -12 2
-15 -8 -15 -47 1 -29 -5 -55 -12 -63 -11 -11 -11 -8 -2 17 11 29 11 29 -9 10
-12 -10 -21 -22 -21 -27 0 -14 -36 -58 -43 -52 -9 9 16 73 26 67 6 -3 7 -1 3
6 -4 6 1 23 11 39 11 15 28 47 38 72 10 25 30 65 43 90 l25 45 -26 -30 c-17
-20 -27 -25 -27 -15 0 12 -3 11 -11 -3 -5 -9 -7 -21 -4 -27 5 -8 -30 -90 -39
-90 -2 0 -7 7 -10 16 -3 8 -2 13 3 10 11 -7 23 36 12 44 -4 3 -14 15 -20 28
-10 20 -10 27 3 41 9 10 16 23 16 29 0 7 5 12 10 12 6 0 10 7 10 15 0 25 53
124 63 118 6 -3 7 -1 3 5 -3 6 7 40 24 77 16 36 30 68 30 71 0 5 28 72 48 114
15 30 12 18 -22 -105 -25 -87 -36 -123 -50 -156 -5 -10 -2 -16 9 -16 9 0 26
22 41 54 14 29 29 53 34 53 9 0 2 -60 -9 -75 -14 -18 -21 -45 -11 -45 5 0 19
31 31 69 24 73 19 70 79 62 3 -1 5 -54 4 -118 -1 -65 2 -163 5 -217 6 -97 7
-100 36 -117 34 -20 58 -24 34 -6 -35 27 -39 53 -39 267 0 182 2 216 17 241
18 30 37 40 26 14 -3 -10 -1 -15 7 -13 10 2 13 -13 12 -57 l0 -60 9 45 c5 25
10 53 11 63 1 9 6 17 11 17 5 0 7 6 4 14 -9 23 18 40 36 22 13 -14 16 -13 21
10 4 14 11 22 16 19 6 -3 7 1 4 9 -4 11 0 16 10 16 14 0 16 -15 17 -102 4
-401 9 -601 14 -606 3 -3 6 69 6 159 1 90 2 255 3 366 l1 202 54 -31 c30 -18
84 -54 120 -81 133 -101 208 -118 302 -69 145 76 143 249 -4 348 -35 25 -52
29 -106 29 l-65 0 -8 33 c-6 23 -14 32 -26 31 -9 -1 -30 3 -45 9 -16 7 -33 12
-39 12 -7 0 -7 4 1 13 13 16 -14 31 -72 42 -40 8 -48 21 -41 61 7 36 13 46 26
38 7 -5 9 5 4 32 -4 25 -3 34 2 25 13 -18 20 -3 20 44 0 58 1 59 17 45 12 -10
13 -7 5 20 -8 29 -8 30 7 18 15 -11 16 -11 10 5 -4 10 -7 21 -7 23 0 2 -10 4
-21 4 -19 0 -21 4 -16 35 4 23 2 33 -4 29 -6 -3 -9 2 -7 12 2 13 -8 23 -31 35
-21 10 -30 19 -23 23 7 4 12 4 12 0 0 -3 6 -1 14 5 11 10 16 8 21 -8 3 -12 11
-21 16 -21 14 0 11 40 -6 56 -8 8 -12 21 -9 29 3 7 -4 18 -15 25 -18 9 -21 8
-22 -7 0 -16 -1 -16 -9 2 -11 25 -13 85 -2 68 4 -6 21 -17 37 -23 25 -9 31 -8
42 6 12 16 13 16 14 -7 l1 -24 8 25 8 25 1 -27 c1 -34 15 -43 34 -23 9 8 25
16 36 18 11 2 39 15 62 30 22 15 44 27 49 27 12 0 56 62 75 106 12 27 18 71
20 146 2 90 5 110 23 133 26 32 21 71 -21 170 -34 80 -52 111 -84 142 -13 12
-23 27 -23 32 0 6 -11 13 -25 17 -14 3 -25 11 -25 16 0 6 -9 8 -20 5 -15 -4
-24 2 -35 23 -8 16 -15 38 -15 50 0 12 -7 20 -17 20 -14 0 -15 2 -4 9 16 10
-1 23 -21 16 -20 -8 -67 31 -63 53 2 9 4 19 4 22 1 3 10 -8 20 -23 10 -16 21
-24 25 -19 4 7 18 7 41 -1 19 -5 32 -14 29 -19 -9 -14 30 -8 50 7 11 8 15 15
9 15 -10 0 -23 27 -27 56 -2 14 -31 43 -47 46 -8 2 -20 9 -27 15 -10 10 -19
10 -33 3 -11 -6 -24 -8 -29 -5 -6 3 -10 2 -10 -4 0 -6 -11 -13 -24 -17 -18 -4
-23 -11 -19 -27 4 -18 3 -19 -6 -7 -6 8 -11 23 -11 33 0 20 -50 72 -78 81 -14
5 -22 22 -30 69 -35 202 -43 244 -51 262 -21 46 -21 55 -2 43 10 -6 18 -18 17
-27 -1 -22 17 -30 20 -8 1 9 -1 29 -5 45 -5 18 -3 37 6 56 10 18 13 43 9 65
-3 21 -2 30 3 23 7 -11 9 -11 14 2 4 9 2 16 -4 16 -6 0 -7 9 -3 23 4 12 8 35
9 50 2 23 -2 28 -17 24 -12 -4 -18 -1 -15 6 2 7 13 11 23 10 19 -1 19 -1 0 12
-17 13 -17 15 -3 21 10 3 17 11 17 16 0 7 -5 7 -12 1 -7 -5 -19 -8 -25 -7 -7
1 -21 2 -30 3 -17 2 -17 3 0 15 18 14 18 15 0 26 -15 9 -11 10 20 5 23 -4 37
-2 37 5 0 5 -6 11 -12 11 -7 1 -19 2 -27 3 -18 1 -27 26 -10 26 7 0 10 2 7 5
-8 9 -38 -6 -32 -16 3 -5 -2 -6 -12 -2 -14 5 -13 8 7 25 13 11 18 17 12 13 -7
-3 -13 -1 -13 5 0 6 -5 8 -12 3 -22 -13 -38 -12 -38 3 0 8 -9 14 -20 14 -11 0
-20 5 -20 11 0 5 -3 8 -8 5 -4 -2 -16 16 -26 41 -13 32 -21 41 -27 31 -5 -7
-9 -17 -9 -23 0 -5 4 -4 9 4 6 10 12 3 21 -23 7 -21 9 -40 6 -43 -3 -4 -6 -1
-6 4 0 6 -8 10 -17 9 -19 -3 -42 22 -48 52 -1 9 -11 34 -21 55 -12 26 -20 33
-26 25 -5 -8 -7 -4 -6 12 2 14 7 28 12 32 6 4 5 17 -2 33 -7 14 -12 35 -12 45
0 11 -4 20 -8 20 -5 0 -9 7 -9 15 0 26 18 3 49 -62 16 -36 32 -62 35 -60 6 7
-37 110 -83 198 -28 56 -32 69 -20 78 12 10 10 16 -13 39 -14 16 -30 26 -36
24 -5 -3 -5 1 2 8 6 7 9 18 7 25 -3 7 -1 16 5 20 6 3 11 15 11 26 0 11 4 18
10 14 13 -8 1 93 -15 125 -7 14 -23 36 -34 49 -12 14 -20 29 -18 34 1 5 -11
23 -28 40 -36 37 -105 48 -150 24 -28 -14 -30 -14 -67 27 -20 22 -51 67 -69
99 -17 32 -33 56 -36 53 -6 -6 64 -126 78 -136 4 -3 10 -18 13 -34 4 -23 3
-26 -10 -16 -7 7 -14 19 -14 26 0 8 -4 14 -9 14 -4 0 -30 28 -57 63 -44 55
-95 116 -171 199 -14 16 -21 33 -17 39 4 7 3 9 -3 6 -13 -8 -66 47 -56 58 5 4
3 6 -3 2 -5 -3 -38 23 -73 59 -45 47 -61 71 -59 87 2 15 9 21 21 19 12 -2 17
4 17 23 0 15 -4 23 -10 20 -6 -4 -7 1 -3 11 6 15 1 16 -37 10 -36 -6 -41 -4
-37 9 4 9 1 15 -8 15 -8 0 -15 -5 -15 -12 0 -6 -9 -3 -20 7 -11 10 -20 24 -20
30 0 7 -7 18 -16 25 -13 12 -9 16 32 31 54 21 78 39 51 39 -9 0 -17 -6 -17
-12 0 -9 -3 -10 -8 -2 -15 23 -46 11 -44 -16 0 -3 -9 -7 -20 -7 -20 -2 -20 -1
-2 12 18 13 18 14 -4 8 -12 -3 -25 -9 -28 -14 -3 -5 -10 -9 -15 -9 -6 0 -7 5
-4 10 11 18 79 42 120 42 31 -1 36 1 23 9 -23 13 -23 29 -1 29 9 0 13 3 10 6
-3 4 -2 16 4 26 9 16 7 24 -7 37 -13 11 -15 12 -7 1 7 -9 7 -24 2 -37 -9 -24
-24 -30 -34 -13 -3 6 -1 10 4 10 17 0 13 27 -5 34 -26 10 -29 7 -8 -10 19 -15
19 -15 -2 -11 -17 4 -20 1 -17 -14 3 -11 1 -19 -5 -19 -6 0 -13 -8 -15 -17 -3
-12 -5 -8 -6 9 0 15 -5 29 -9 32 -5 3 -7 -7 -4 -22 3 -21 -6 -37 -36 -70 -28
-30 -42 -39 -48 -31 -4 7 -3 10 3 6 11 -7 23 14 23 39 0 12 -2 12 -14 2 -8 -7
-12 -16 -9 -20 2 -4 -3 -5 -12 -2 -14 6 -14 8 1 19 9 6 14 18 11 26 -4 10 -6
9 -6 -3 -1 -27 -31 -22 -32 5 -1 14 -3 16 -6 6 -3 -12 -13 -7 -46 23 -23 22
-59 51 -79 65 -24 16 -35 31 -33 43 3 14 -1 17 -12 13 -12 -5 -14 -1 -8 18 7
21 6 22 -8 11 -13 -11 -19 -10 -35 6 -11 11 -18 23 -14 26 3 3 -2 6 -10 6 -9
0 -18 -5 -20 -12 -3 -8 -28 2 -74 29 -38 23 -91 51 -117 64 -27 12 -55 32 -64
45 -8 13 -18 22 -22 19 -13 -7 -51 25 -51 43 1 20 24 54 32 46 3 -2 3 7 1 21
-6 28 8 32 51 15 23 -8 26 -6 42 35 9 25 14 54 11 66 -3 12 -1 32 5 43 6 12 8
18 4 14 -14 -12 -81 14 -103 40 -12 15 -22 21 -23 14 0 -7 -4 -11 -9 -8 -15
10 -6 84 12 104 11 12 17 36 17 66 0 52 -11 80 -35 90 -17 6 -13 -6 12 -35 9
-10 13 -33 11 -58 -2 -33 -6 -39 -18 -31 -13 9 -13 11 0 20 12 8 11 10 -7 10
-13 0 -23 5 -23 11 0 6 9 9 20 6 13 -3 20 0 20 10 0 8 -4 11 -10 8 -5 -3 -10
3 -10 14 0 12 -4 21 -10 21 -5 0 -10 -4 -10 -10 0 -18 -20 -11 -20 8 -1 16 -1
16 -14 0 -7 -10 -18 -18 -25 -18 -6 0 -11 -10 -12 -22 0 -13 -3 -17 -6 -10 -2
6 -11 12 -19 12 -15 0 -19 16 -5 22 11 4 21 98 10 98 -5 0 -9 -7 -9 -15 0 -8
-6 -15 -13 -15 -19 0 -36 20 -30 36 3 10 -5 16 -26 20 -24 5 -30 11 -26 24 3
10 0 17 -9 17 -9 0 -12 -5 -9 -10 4 -6 -4 -7 -21 -3 -14 3 -26 2 -26 -2 0 -5
-22 -8 -50 -6 -46 3 -66 -8 -37 -19 9 -4 9 -6 -1 -6 -8 -1 -16 8 -19 18 -5 21
-29 35 -44 25 -5 -3 -9 0 -9 5 0 6 -4 11 -10 11 -5 0 -7 -7 -4 -14z m274 -50
c0 -3 -4 -8 -10 -11 -5 -3 -10 -1 -10 4 0 6 5 11 10 11 6 0 10 -2 10 -4z m10
-106 c0 -5 -11 -10 -25 -10 -14 0 -25 5 -25 10 0 6 11 10 25 10 14 0 25 -4 25
-10z m112 -42 c-7 -7 -12 -8 -12 -2 0 14 12 26 19 19 2 -3 -1 -11 -7 -17z
m-1759 -13 c9 -21 -10 -28 -22 -8 -6 10 -11 13 -11 6 0 -8 -44 -12 -152 -12
-207 -2 -390 -16 -588 -45 -221 -33 -438 -82 -515 -117 -11 -5 -54 -21 -95
-35 -41 -14 -106 -37 -143 -50 -93 -32 -96 -29 -12 10 283 134 919 263 1240
252 38 -1 87 1 110 5 80 13 182 10 188 -6z m1737 -15 c0 -5 -5 -10 -11 -10 -5
0 -7 5 -4 10 3 6 8 10 11 10 2 0 4 -4 4 -10z m-149 -46 l-9 -39 -1 36 c-1 20
2 39 6 42 12 13 13 0 4 -39z m-1111 26 c30 -5 76 -12 103 -16 34 -5 47 -11 47
-23 0 -14 -2 -14 -10 -1 -8 13 -10 12 -15 -1 -5 -14 -24 -13 -168 12 -89 16
-169 31 -177 33 -31 8 167 4 220 -4z m1077 -32 c-3 -7 -5 -2 -5 12 0 14 2 19
5 13 2 -7 2 -19 0 -25z m183 -4 c0 -8 -7 -14 -16 -14 -14 0 -14 3 -4 15 9 10
9 15 1 15 -6 0 -11 5 -11 11 0 8 5 8 15 -1 8 -7 15 -19 15 -26z m70 -26 c0
-10 -5 -16 -10 -13 -6 4 -7 11 -4 17 5 7 1 9 -9 5 -9 -3 -19 -2 -22 3 -4 6 1
10 9 10 9 0 16 5 16 11 0 6 -9 8 -22 3 -21 -6 -22 -5 -8 11 13 16 15 16 32 -5
10 -12 18 -31 18 -42z m20 42 c0 -5 -5 -10 -11 -10 -5 0 -7 5 -4 10 3 6 8 10
11 10 2 0 4 -4 4 -10z m-1150 -27 c-8 -3 -18 -11 -22 -17 -5 -7 -8 -4 -8 7 0
11 7 17 23 16 15 0 17 -2 7 -6z m667 -25 c-3 -8 -6 -5 -6 6 -1 11 2 17 5 13 3
-3 4 -12 1 -19z m-517 2 c8 -5 12 -11 9 -14 -3 -3 -14 1 -25 9 -21 16 -8 20
16 5z m160 -6 c0 -2 -7 -4 -15 -4 -8 0 -15 4 -15 10 0 5 7 7 15 4 8 -4 15 -8
15 -10z m750 1 c0 -8 -8 -15 -17 -14 -11 0 -13 3 -5 6 6 2 10 9 6 14 -3 5 0 9
5 9 6 0 11 -7 11 -15z m22 -27 c-8 -8 -9 -4 -5 13 4 13 8 18 11 10 2 -7 -1
-18 -6 -23z m-885 16 c-3 -3 -12 -4 -19 -1 -8 3 -5 6 6 6 11 1 17 -2 13 -5z
m807 -25 c-3 -5 -1 -9 4 -9 5 0 7 -12 4 -26 -4 -22 -8 -25 -31 -19 -31 8 -28
5 -33 30 -2 16 2 19 19 17 17 -2 21 1 17 12 -5 12 -2 15 10 10 9 -3 13 -10 10
-15z m-731 4 c-7 -2 -19 -2 -25 0 -7 3 -2 5 12 5 14 0 19 -2 13 -5z m647 -13
c0 -5 -12 -10 -27 -9 -25 0 -26 1 -8 9 27 12 35 12 35 0z m-560 -4 c0 -2 -7
-6 -15 -10 -8 -3 -15 -1 -15 4 0 6 7 10 15 10 8 0 15 -2 15 -4z m37 -12 c-3
-3 -12 -4 -19 -1 -8 3 -5 6 6 6 11 1 17 -2 13 -5z m487 -20 c3 -8 2 -12 -4 -9
-6 3 -10 10 -10 16 0 14 7 11 14 -7z m43 -6 c-3 -8 -6 -5 -6 6 -1 11 2 17 5
13 3 -3 4 -12 1 -19z m188 12 c3 -5 -1 -10 -10 -10 -9 0 -13 5 -10 10 3 6 8
10 10 10 2 0 7 -4 10 -10z m-2147 -7 c-123 -7 -71 -22 72 -21 145 1 172 5 80
13 -98 8 -64 15 76 15 152 0 366 -17 374 -29 10 -17 113 -62 127 -57 8 3 11 2
8 -3 -3 -5 44 -29 105 -52 60 -24 108 -44 106 -46 -5 -6 -163 50 -239 85 -89
41 -233 84 -260 79 -19 -4 -18 -4 4 -6 31 -1 224 -76 254 -98 18 -14 16 -14
-28 -8 -44 6 -92 25 -192 77 -39 20 -170 38 -150 20 6 -5 46 -17 90 -27 44 -9
100 -28 125 -41 l45 -24 -80 -1 c-44 -1 -93 -5 -110 -9 -17 -5 16 -6 74 -3 85
5 103 4 99 -8 -2 -7 -15 -16 -29 -20 -21 -6 -18 -8 24 -20 26 -7 47 -17 47
-21 0 -4 12 -8 26 -8 14 0 23 -4 20 -8 -3 -5 33 -16 80 -26 47 -10 124 -31
172 -47 48 -16 93 -29 100 -29 7 0 31 -9 54 -20 23 -11 57 -23 77 -26 38 -8
64 -27 53 -39 -4 -5 1 -5 11 -2 9 4 17 2 17 -3 0 -6 7 -10 15 -10 23 0 96 -41
89 -51 -3 -5 2 -6 10 -3 8 3 27 -1 43 -10 15 -8 21 -15 13 -16 -10 0 -8 -4 7
-13 12 -6 98 -58 190 -115 181 -111 272 -172 364 -249 l59 -48 -30 -9 c-17 -5
-30 -13 -30 -17 0 -5 -12 -10 -27 -10 -41 -2 45 -18 142 -27 78 -7 79 -8 45
-19 -19 -6 -82 -17 -140 -24 -58 -7 -106 -13 -108 -14 -1 -1 11 -27 28 -58 16
-31 30 -59 30 -62 0 -3 -13 -5 -30 -5 -16 0 -53 -5 -82 -10 -74 -15 -318 -92
-313 -100 5 -8 -148 -59 -158 -53 -4 3 2 13 14 24 12 11 20 21 17 24 -7 8 -48
-34 -48 -50 0 -13 -38 -42 -44 -33 -44 71 -113 122 -346 258 -250 145 -455
235 -758 331 -177 57 -217 63 -87 14 97 -36 97 -41 1 -25 -207 34 -263 40
-342 39 -79 -1 -84 -2 -42 -9 45 -8 126 -33 193 -61 17 -6 57 -22 90 -34 202
-76 221 -89 228 -158 5 -46 17 -61 17 -22 0 26 1 27 21 13 22 -14 41 -61 55
-133 4 -22 8 -46 10 -53 1 -8 -3 -11 -11 -8 -27 10 -7 -24 36 -62 24 -22 87
-88 139 -148 111 -127 172 -189 219 -226 29 -22 33 -29 22 -41 -6 -8 -22 -18
-34 -21 -12 -3 -31 -18 -41 -33 -11 -15 -53 -59 -93 -96 -40 -37 -73 -71 -74
-75 0 -4 -6 -13 -12 -21 -9 -12 -9 -13 1 -7 32 19 5 -13 -42 -51 -37 -30 -69
-46 -107 -54 -30 -6 -71 -15 -91 -20 -21 -5 -66 -12 -100 -14 -35 -2 -90 -7
-123 -11 -33 -3 -73 -6 -90 -5 -58 2 -440 -85 -470 -108 -17 -13 -135 -45
-141 -38 -4 3 -20 57 -36 119 -16 62 -32 115 -35 118 -7 6 4 -72 24 -173 8
-43 12 -84 9 -92 -7 -18 -86 -69 -94 -60 -4 3 11 22 33 40 22 19 34 34 28 35
-7 0 -13 -5 -13 -11 0 -5 -4 -8 -8 -5 -5 3 -19 -5 -33 -18 -13 -12 -29 -21
-35 -19 -6 2 -21 -6 -34 -17 -14 -12 -32 -19 -42 -17 -10 3 -16 2 -14 -2 7
-11 -103 -63 -116 -55 -7 4 -8 2 -4 -5 5 -8 -25 -27 -91 -59 -88 -42 -105 -47
-168 -47 -61 0 -81 5 -150 38 -44 21 -82 42 -85 46 -7 9 -105 51 -121 51 -7 0
-26 -12 -41 -27 -18 -18 -28 -22 -28 -12 1 21 36 95 50 104 16 10 70 125 70
149 0 11 14 44 30 75 17 31 22 45 13 32 -10 -13 -35 -56 -57 -95 -48 -87 -127
-210 -138 -214 -4 -2 -6 -8 -2 -13 8 -14 -29 -10 -49 5 -15 12 -15 14 -2 19 8
4 14 3 12 -1 -1 -4 3 -8 8 -9 6 -2 10 2 10 9 0 7 11 15 25 19 18 5 20 7 6 8
-10 1 -39 8 -65 16 -231 76 -290 98 -338 127 -30 18 -62 44 -71 57 -27 40 -18
107 26 201 22 47 43 96 47 110 l7 25 -19 -25 c-20 -27 -31 -48 -64 -127 -12
-29 -28 -53 -35 -53 -8 0 -14 2 -14 3 0 13 45 139 61 169 10 20 23 54 27 76
10 41 112 223 123 217 3 -2 6 1 6 8 0 23 148 202 253 307 125 124 294 274 315
278 8 2 15 7 15 11 0 10 94 71 109 71 5 0 15 9 21 20 6 11 15 18 21 15 9 -6
72 27 97 52 7 7 18 13 23 13 16 0 24 3 36 16 16 15 148 66 244 94 41 11 82 25
91 30 10 6 28 10 40 11 13 1 -31 9 -97 19 -213 33 -472 24 -745 -25 -188 -33
-260 -43 -254 -33 3 4 3 8 0 8 -8 0 -146 -89 -146 -94 0 -3 27 6 61 20 65 27
193 58 274 68 l50 7 -85 -46 c-47 -25 -144 -74 -216 -109 -80 -38 -156 -84
-196 -117 -69 -56 -83 -87 -20 -44 20 14 41 25 46 25 5 0 70 39 145 87 131 84
231 133 231 114 0 -6 -5 -13 -10 -16 -6 -4 -8 -11 -5 -16 3 -5 0 -6 -8 -3 -9
3 -26 -8 -42 -28 -15 -18 -24 -26 -20 -18 3 8 -2 5 -13 -7 -11 -12 -22 -20
-24 -18 -3 3 -34 -26 -70 -63 l-66 -68 127 2 127 2 90 71 c87 71 201 134 237
133 10 -1 51 12 90 27 74 29 158 48 141 31 -5 -5 -33 -18 -63 -30 -97 -38
-370 -248 -491 -377 -155 -165 -298 -342 -385 -473 -107 -162 -225 -416 -250
-539 -8 -35 -20 -68 -27 -72 -7 -5 -8 -9 -3 -9 6 0 -26 -23 -70 -51 -44 -28
-82 -54 -85 -58 -3 -3 -45 -42 -94 -86 -71 -64 -86 -73 -72 -48 19 37 20 47 5
37 -8 -4 -8 -1 -1 12 5 11 20 66 32 123 12 57 26 116 31 130 9 23 6 22 -25
-11 -38 -41 -86 -127 -86 -155 0 -10 -9 -24 -21 -31 -12 -8 -18 -19 -15 -28 4
-10 -22 -50 -68 -107 -69 -85 -194 -224 -166 -184 28 38 -11 13 -75 -49 -37
-36 -69 -63 -72 -60 -25 25 -74 -166 -67 -265 3 -63 3 -63 -7 -19 -6 26 -8
120 -6 225 4 161 8 192 35 295 17 63 40 139 52 168 21 56 25 76 12 68 -12 -7
-57 -127 -85 -226 -18 -63 -26 -123 -32 -235 -7 -150 -19 -240 -37 -262 -5 -6
-6 -22 -3 -35 4 -16 -1 -31 -15 -48 -21 -24 -22 -25 -36 -6 -8 11 -15 31 -15
45 -1 18 -3 20 -6 8 -10 -37 -23 -3 -23 61 0 94 -17 68 -30 -46 -9 -86 -9 -95
8 -117 11 -14 22 -21 26 -18 3 3 6 1 6 -6 0 -8 -11 -11 -30 -9 -34 3 -50 -13
-43 -42 4 -16 14 -17 86 -13 70 4 87 1 115 -16 31 -20 32 -23 32 -88 0 -38 -7
-131 -15 -208 -36 -339 -4 -761 80 -1070 41 -149 129 -384 195 -519 93 -191
215 -406 258 -456 l43 -49 -91 32 -90 32 -74 105 c-73 105 -181 285 -221 370
-12 25 -29 61 -38 80 l-17 35 5 -40 6 -40 -20 40 c-12 21 -21 45 -21 51 0 7
-7 15 -16 18 -14 5 -15 4 -4 -8 6 -9 10 -21 7 -28 -2 -7 2 -32 8 -55 7 -24 11
-43 9 -43 -3 0 0 -9 6 -20 10 -19 8 -19 -37 -13 -27 3 -54 11 -62 17 -17 13
-16 10 35 -67 19 -28 34 -55 34 -59 0 -5 24 -41 53 -81 30 -39 62 -85 72 -101
19 -29 19 -29 -1 -18 -11 6 -27 18 -34 27 -8 9 -34 30 -58 47 l-44 31 43 -84
c34 -64 45 -79 47 -61 2 12 8 20 13 17 12 -8 12 -55 -1 -55 -6 0 -4 -13 5 -30
9 -16 18 -30 21 -30 3 0 2 5 -1 10 -3 6 -3 15 0 21 7 10 75 -55 75 -72 0 -4
20 -30 45 -56 25 -26 43 -54 40 -61 -2 -7 -1 -11 4 -8 11 7 66 -78 121 -189
25 -49 53 -96 63 -103 9 -7 15 -18 12 -23 -4 -5 -1 -9 4 -9 6 0 11 -9 11 -21
0 -13 4 -18 11 -13 8 5 10 -1 7 -20 -5 -23 -3 -24 10 -14 11 9 14 9 9 1 -4 -6
-3 -14 2 -17 4 -3 11 -24 15 -45 5 -31 10 -39 21 -34 9 3 15 1 13 -4 -2 -5 12
-24 30 -42 17 -18 32 -27 32 -20 0 7 18 -7 40 -32 22 -24 38 -49 35 -56 -2 -7
2 -10 11 -6 17 6 104 -78 104 -100 0 -7 -5 -6 -11 3 -8 12 -10 12 -7 1 2 -8
14 -16 26 -18 54 -8 101 -65 71 -84 -11 -8 -10 -12 5 -24 10 -8 23 -12 29 -8
6 3 7 1 3 -5 -3 -6 6 -20 21 -31 37 -28 86 -68 139 -111 89 -73 119 -97 135
-102 39 -15 199 -130 193 -140 -4 -5 -9 -6 -13 -2 -3 5 -26 20 -51 33 -25 13
-52 29 -60 36 -28 22 -44 29 -35 16 12 -21 -23 2 -81 51 -47 40 -88 71 -185
141 -42 31 -172 157 -283 275 -37 39 -70 72 -73 72 -3 0 16 -26 43 -57 27 -32
40 -51 30 -43 -33 26 -217 247 -321 385 -55 74 -132 187 -172 252 -93 154
-217 396 -242 475 -11 35 -43 119 -71 187 -141 346 -240 860 -240 1249 0 228
43 650 82 807 l13 50 6 -50 c6 -46 7 -45 6 20 0 51 11 114 42 230 51 197 86
307 94 299 3 -3 5 2 5 12 -2 31 30 131 89 273 120 294 311 637 476 856 128
169 338 395 366 395 6 0 11 5 11 10 0 15 105 105 350 301 97 77 267 189 254
166 -7 -11 19 8 53 40 7 6 22 15 33 18 11 4 17 11 14 17 -5 8 -1 9 10 5 9 -4
15 -3 12 2 -3 5 0 13 7 19 24 19 268 146 342 177 345 147 650 230 1025 279
156 21 180 23 290 22 70 0 77 -1 28 -3z m695 -30 c-7 -2 -19 -2 -25 0 -7 3 -2
5 12 5 14 0 19 -2 13 -5z m70 -10 c-7 -2 -19 -2 -25 0 -7 3 -2 5 12 5 14 0 19
-2 13 -5z m42 -12 c-3 -5 7 -12 22 -14 23 -3 22 -4 -9 -6 -20 0 -44 2 -54 6
-16 6 -16 7 2 14 27 11 46 11 39 0z m-1904 -16 c-18 -8 -36 -15 -40 -15 -13 1
45 29 59 29 8 0 0 -6 -19 -14z m2104 -44 c158 -34 497 -135 592 -177 28 -12
53 -20 56 -18 11 12 312 -133 462 -222 75 -44 170 -111 128 -89 -7 3 -13 4
-13 1 0 -7 61 -40 74 -41 5 0 10 -8 12 -18 2 -14 -1 -16 -10 -8 -7 6 -78 44
-157 85 -79 40 -178 91 -219 112 -261 137 -618 277 -703 275 -9 0 -15 4 -12 8
2 5 -62 25 -143 46 -81 20 -160 43 -177 50 -29 13 -29 13 -5 14 14 0 66 -8
115 -18z m-2295 -1 c-8 -5 -19 -10 -25 -10 -5 0 -3 5 5 10 8 5 20 10 25 10 6
0 3 -5 -5 -10z m-60 -25 c-14 -8 -29 -14 -35 -14 -5 0 1 6 15 14 14 8 30 14
35 14 6 0 -1 -6 -15 -14z m2097 -91 c-3 -3 -12 -4 -19 -1 -8 3 -5 6 6 6 11 1
17 -2 13 -5z m-2447 -55 c-34 -23 -70 -39 -70 -31 0 5 15 15 33 24 37 18 59
22 37 7z m4116 -171 c65 -44 157 -120 124 -103 -8 5 -54 35 -102 67 -113 76
-117 61 -8 -32 14 -12 5 -8 -20 8 -25 16 -55 32 -67 36 -28 9 -131 76 -166
108 -30 28 -35 43 -12 35 8 -4 17 -2 20 3 7 11 133 -56 231 -122z m-4246 97
c0 -2 -10 -9 -22 -15 -22 -11 -22 -10 -4 4 21 17 26 19 26 11z m92 -18 c-6 -7
-30 -23 -54 -36 -50 -28 -41 -16 17 23 44 29 52 32 37 13z m-244 -42 c-3 -3
-9 2 -12 12 -6 14 -5 15 5 6 7 -7 10 -15 7 -18z m-211 -122 c3 -7 -6 -17 -17
-23 -30 -16 -47 1 -24 24 17 18 35 17 41 -1z m4103 -53 c8 -5 11 -10 5 -10 -5
0 -17 5 -25 10 -8 5 -10 10 -5 10 6 0 17 -5 25 -10z m-4110 -39 c0 -5 -7 -12
-16 -15 -14 -5 -15 -4 -4 9 14 17 20 19 20 6z m5150 -31 c0 -5 -7 -10 -15 -10
-8 0 -15 5 -15 10 0 6 7 10 15 10 8 0 15 -4 15 -10z m-5160 -3 c0 -2 -18 -18
-41 -36 l-41 -33 16 30 c9 17 21 32 28 35 15 6 38 8 38 4z m4580 -40 c20 -16
36 -45 59 -107 22 -59 18 -66 -8 -12 -26 57 -62 112 -72 112 -5 0 -9 5 -9 10
0 13 12 12 30 -3z m140 -91 c47 -35 99 -79 115 -97 17 -19 20 -25 8 -15 -13
11 -23 16 -23 11 0 -4 -7 -2 -15 5 -8 7 -12 16 -9 21 3 5 -1 9 -9 9 -9 0 -50
29 -92 65 -42 36 -72 65 -68 65 4 0 46 -29 93 -64z m-5256 -57 c-3 -5 -10 -7
-15 -3 -5 3 -7 10 -3 15 3 5 10 7 15 3 5 -3 7 -10 3 -15z m5167 -56 c13 -16
12 -17 -3 -4 -10 7 -18 15 -18 17 0 8 8 3 21 -13z m-5121 -27 c0 -3 -4 -8 -10
-11 -5 -3 -10 -1 -10 4 0 6 5 11 10 11 6 0 10 -2 10 -4z m2954 -51 c3 -8 1
-15 -4 -15 -6 0 -10 7 -10 15 0 8 2 15 4 15 2 0 6 -7 10 -15z m2226 -5 c6 -11
8 -20 6 -20 -3 0 -10 9 -16 20 -6 11 -8 20 -6 20 3 0 10 -9 16 -20z m-5327
-55 c4 -8 2 -17 -2 -20 -5 -2 -11 4 -14 15 -6 23 8 27 16 5z m5622 -10 c29
-13 26 -13 -48 -14 -43 -1 -93 -7 -112 -15 -28 -12 -34 -12 -39 -1 -5 14 8 28
34 38 29 11 135 6 165 -8z m76 -71 c106 -66 321 -305 484 -538 122 -175 310
-518 399 -728 70 -162 146 -403 146 -458 0 -17 -17 -11 -23 8 -36 116 -114
276 -147 302 -4 3 -24 48 -45 100 -21 52 -49 113 -63 135 l-24 40 7 -40 c3
-22 8 -49 11 -60 l5 -20 -17 20 c-16 20 -16 19 -9 -5 4 -14 11 -27 15 -30 9
-6 40 -107 40 -131 0 -9 8 -34 17 -55 15 -36 18 -55 13 -86 -1 -7 -14 37 -30
97 -34 133 -47 168 -59 160 -5 -3 -13 4 -16 15 -4 12 -17 25 -29 30 -12 4 -30
25 -41 47 -18 38 -65 84 -65 64 0 -5 5 -13 10 -16 12 -7 13 -25 2 -25 -4 0
-15 17 -25 38 l-17 37 5 -37 c3 -26 0 -38 -11 -42 -8 -3 -13 -2 -9 3 3 5 0 11
-7 13 -6 2 -11 18 -11 36 0 18 -3 32 -7 32 -3 0 -17 35 -29 78 -12 42 -33 109
-47 147 -13 39 -24 77 -23 85 0 13 1 13 6 0 18 -48 54 -120 63 -125 11 -7 6 8
-25 74 -12 25 -30 67 -40 94 -11 29 -24 47 -34 47 -10 0 -32 29 -55 73 -22 39
-50 86 -63 103 -13 17 -23 36 -23 42 0 6 -37 66 -82 132 -46 67 -92 136 -103
153 -11 18 -40 52 -65 77 -49 50 -106 128 -98 135 3 3 26 -11 51 -30 26 -20
47 -33 47 -29 0 3 8 1 18 -6 9 -7 -2 4 -25 24 -39 34 -53 56 -37 56 3 0 32
-16 65 -36z m-5686 16 c-3 -5 -11 -10 -16 -10 -6 0 -7 5 -4 10 3 6 11 10 16
10 6 0 7 -4 4 -10z m5487 -27 c37 -40 113 -162 127 -204 6 -19 31 -62 54 -95
24 -32 71 -104 105 -159 34 -55 67 -108 74 -117 6 -9 33 -54 59 -100 41 -71
45 -85 33 -95 -10 -7 -12 -13 -5 -18 6 -3 11 0 11 7 0 52 104 -219 130 -339 8
-35 17 -63 21 -63 4 0 5 10 2 23 -3 12 -3 19 1 16 4 -4 9 -17 10 -30 2 -13 7
-37 11 -52 11 -41 -1 -44 -23 -7 -12 19 -23 27 -26 21 -4 -6 -2 -11 3 -11 6 0
11 -9 11 -20 0 -11 5 -20 10 -20 6 0 10 -5 10 -12 0 -6 8 -21 19 -32 10 -12
27 -34 37 -51 18 -30 18 -30 -1 -14 -11 9 -31 20 -45 24 -14 4 -41 19 -61 32
-33 22 -38 31 -54 106 -58 276 -127 463 -258 697 -96 174 -121 211 -208 316
-49 57 -71 93 -78 125 -13 54 -14 99 -3 99 5 0 20 -12 34 -27z m-5710 -46 c-5
-7 -5 -23 -1 -37 6 -21 7 -22 9 -5 2 17 3 16 9 -5 11 -35 -3 -46 -34 -26 -20
13 -24 20 -15 30 5 8 8 21 4 30 -4 11 -1 16 10 16 9 0 16 5 16 11 0 5 -6 7
-12 3 -8 -5 -7 0 2 11 14 17 15 17 18 1 2 -9 -1 -22 -6 -29z m218 19 c0 -2 -7
-7 -16 -10 -8 -3 -12 -2 -9 4 6 10 25 14 25 6z m26 -38 c-1 -25 -18 -48 -35
-48 -6 0 -8 -7 -5 -15 4 -8 1 -15 -5 -15 -20 0 -11 34 16 68 15 17 28 32 28
32 1 0 1 -10 1 -22z m4741 16 c-3 -3 -12 -4 -19 -1 -8 3 -5 6 6 6 11 1 17 -2
13 -5z m-4857 -14 c0 -5 -2 -10 -4 -10 -3 0 -8 5 -11 10 -3 6 -1 10 4 10 6 0
11 -4 11 -10z m-66 -69 c-7 -53 -7 -53 -27 -33 -18 19 -18 22 -3 43 9 13 16
32 16 43 0 14 3 17 11 9 6 -6 7 -30 3 -62z m3331 29 c3 -5 2 -10 -4 -10 -5 0
-13 5 -16 10 -3 6 -2 10 4 10 5 0 13 -4 16 -10z m-3291 -46 c-9 -13 -19 -22
-22 -20 -3 3 1 13 9 22 11 13 11 18 2 21 -7 3 -13 9 -13 14 0 6 8 5 20 -1 19
-10 19 -12 4 -36z m6291 -35 c61 -81 70 -98 50 -105 -13 -5 -12 -10 6 -38 l21
-31 -27 30 c-30 35 -60 93 -52 101 3 3 13 -8 22 -25 8 -17 20 -31 25 -31 6 0
0 17 -14 38 -16 24 -30 36 -42 34 -15 -2 -16 -1 -5 6 7 6 10 15 6 22 -5 9 -9
9 -14 1 -5 -7 -20 2 -41 24 -28 29 -32 38 -20 45 18 11 30 2 85 -71z m-1432
64 c-7 -2 -19 -2 -25 0 -7 3 -2 5 12 5 14 0 19 -2 13 -5z m935 -341 c123 -203
230 -451 245 -572 6 -44 6 -44 -4 -10 -44 143 -65 204 -91 264 -47 108 -204
382 -272 474 -104 141 -114 157 -110 164 7 12 149 -184 232 -320z m-5708 297
c0 -4 -7 -6 -15 -3 -10 4 -15 0 -15 -11 0 -9 -6 -15 -12 -12 -7 2 -13 10 -13
18 0 8 6 13 13 12 6 -2 12 1 12 7 0 5 7 7 15 4 8 -4 15 -10 15 -15z m4543 -4
c-27 -19 -117 -37 -140 -28 -12 5 4 13 52 24 39 10 79 18 90 18 18 1 18 0 -2
-14z m-4663 -40 c0 -16 -27 -32 -37 -21 -7 7 16 36 28 36 5 0 9 -7 9 -15z
m4521 -25 c42 -28 155 -127 134 -117 -5 3 -48 30 -95 61 -86 57 -109 64 -146
43 -22 -13 -91 -88 -86 -94 1 -2 -4 -16 -12 -31 -7 -15 -19 -51 -25 -81 -6
-29 -24 -70 -40 -90 -15 -20 -36 -50 -46 -68 -10 -18 -21 -30 -24 -28 -3 2 -7
-17 -8 -42 -2 -46 24 -101 61 -132 20 -17 20 -25 0 -46 -12 -11 -13 -19 -5
-29 6 -7 7 -17 3 -21 -4 -5 -1 -5 7 0 8 4 17 2 23 -6 7 -11 11 -11 15 -1 7 17
28 15 43 -3 11 -13 10 -14 -4 -9 -9 3 -16 1 -16 -5 0 -6 5 -11 12 -11 8 0 9
-3 2 -10 -12 -12 -44 -3 -44 11 0 5 -11 14 -25 19 -14 5 -25 16 -25 25 0 11
-11 15 -40 15 -33 0 -40 -3 -40 -20 0 -11 -6 -20 -13 -20 -7 0 -25 -6 -40 -12
-25 -12 -27 -17 -27 -80 0 -38 -4 -68 -10 -68 -5 0 -27 31 -50 69 -43 75 -108
164 -122 170 -5 1 -20 15 -33 29 -13 14 -28 22 -32 18 -4 -4 4 -18 19 -29 14
-12 70 -81 125 -152 54 -72 101 -131 104 -130 4 0 16 -8 26 -17 14 -13 22 -15
30 -7 8 8 13 7 18 -1 4 -7 0 -18 -9 -26 -9 -8 -11 -9 -6 -2 14 17 13 35 -2 20
-9 -9 -16 -8 -30 5 -32 29 -20 4 41 -82 32 -47 62 -81 66 -77 5 4 5 1 1 -6 -5
-7 -2 -21 6 -30 45 -52 288 -513 360 -682 52 -123 59 -154 44 -191 -7 -16 -15
-27 -18 -24 -3 3 -8 -8 -10 -25 -3 -16 -1 -30 4 -30 4 0 8 -9 8 -20 0 -23 0
-23 -137 16 -45 12 -109 29 -142 35 -37 8 -56 16 -48 21 8 5 6 8 -8 9 -14 1
-11 4 10 10 20 5 10 6 -31 3 -68 -6 -112 9 -92 33 8 10 7 13 -3 13 -8 0 -41
50 -74 112 -94 176 -288 468 -512 769 -56 76 -98 141 -95 145 4 4 2 4 -5 0
-31 -18 -18 19 25 71 86 102 434 444 627 614 27 24 77 70 110 101 56 53 217
148 249 148 7 0 32 -13 57 -30z m-4511 -30 c0 -5 -4 -10 -10 -10 -5 0 -10 5
-10 10 0 6 5 10 10 10 6 0 10 -4 10 -10z m4355 -60 c-3 -5 -11 -10 -16 -10 -6
0 -7 5 -4 10 3 6 11 10 16 10 6 0 7 -4 4 -10z m2403 -330 c13 -16 18 -30 13
-30 -5 0 -19 14 -31 30 -12 17 -17 30 -13 30 5 0 19 -13 31 -30z m-536 -75 c3
-14 1 -28 -3 -31 -5 -3 -9 9 -9 25 0 38 6 40 12 6z m592 -21 c5 -14 4 -15 -9
-4 -17 14 -19 20 -6 20 5 0 12 -7 15 -16z m-3324 -44 c0 -5 -5 -10 -11 -10 -5
0 -7 5 -4 10 3 6 8 10 11 10 2 0 4 -4 4 -10z m780 -87 c0 -24 -25 -9 -28 17
-3 21 -2 22 12 11 9 -7 16 -20 16 -28z m-4604 -20 c-8 -15 -25 -48 -37 -72
-18 -38 -23 -42 -31 -27 -8 14 -5 25 11 47 12 15 21 33 21 39 0 5 9 15 20 22
11 7 20 20 21 28 0 10 2 11 6 3 2 -7 -2 -25 -11 -40z m4544 -33 c0 -5 -7 -7
-15 -4 -8 4 -15 8 -15 10 0 2 7 4 15 4 8 0 15 -4 15 -10z m140 -30 c0 -5 -2
-10 -4 -10 -3 0 -8 5 -11 10 -3 6 -1 10 4 10 6 0 11 -4 11 -10z m-1252 -7
c-10 -2 -28 -2 -40 0 -13 2 -5 4 17 4 22 1 32 -1 23 -4z m1283 -35 c11 -21 11
-22 -4 -9 -10 7 -17 17 -17 22 0 15 9 10 21 -13z m-4787 -36 c-8 -24 -18 -49
-46 -112 -14 -30 -30 -74 -37 -97 -6 -24 -16 -43 -21 -43 -6 0 -9 -3 -8 -7 1
-5 -5 -21 -12 -38 -7 -16 -28 -85 -45 -153 -18 -68 -35 -117 -38 -109 -13 34
62 319 110 417 21 41 39 79 41 84 3 5 -1 5 -8 1 -7 -4 -3 10 9 31 22 40 65 60
55 26z m5755 -242 c30 -94 51 -201 50 -250 0 -23 -1 -23 -9 -5 -4 11 -18 67
-30 125 -12 58 -41 157 -64 220 -24 63 -46 124 -50 135 -4 11 11 -14 33 -55
22 -41 54 -118 70 -170z m728 178 c-3 -8 -6 -5 -6 6 -1 11 2 17 5 13 3 -3 4
-12 1 -19z m-5445 -22 c273 -104 522 -211 750 -320 76 -36 141 -66 144 -66 4
0 32 -20 62 -45 30 -25 58 -45 63 -45 5 0 9 -12 9 -27 0 -14 11 -85 25 -157
14 -72 32 -187 40 -256 9 -69 20 -152 25 -185 5 -33 7 -61 5 -64 -2 -2 -7 15
-11 38 -4 23 -10 39 -15 34 -4 -4 1 -46 11 -93 11 -47 19 -109 19 -138 1 -33
5 -51 11 -47 21 13 9 -48 -14 -76 -14 -16 -30 -53 -36 -83 -12 -60 -71 -189
-92 -202 -7 -5 -19 -9 -27 -11 -8 -1 -44 -31 -80 -67 -248 -244 -271 -264
-288 -260 -11 3 -43 28 -72 55 -29 27 -56 48 -59 45 -8 -8 -77 94 -185 277
-75 126 -106 169 -124 173 -22 6 -20 9 29 39 29 17 109 68 177 113 68 45 150
92 182 104 33 13 59 26 59 30 0 3 24 14 53 24 31 11 45 20 34 22 -31 6 -267
-102 -382 -176 -27 -18 -69 -37 -92 -43 -23 -6 -41 -16 -40 -21 1 -6 -4 -13
-11 -15 -8 -3 -10 1 -6 11 3 9 2 16 -3 16 -5 0 -10 10 -10 22 -2 17 0 19 7 8
20 -32 19 3 -1 131 -21 132 -27 157 -55 212 -8 16 -14 37 -14 47 0 10 -4 22
-10 25 -5 3 -10 1 -10 -4 0 -6 -9 -3 -20 6 -11 10 -20 25 -20 35 0 9 -4 20
-10 23 -5 3 -10 15 -10 25 0 10 -5 22 -10 25 -18 11 -180 32 -180 23 0 -4 17
-8 38 -9 48 -1 80 -13 63 -23 -7 -5 -25 -12 -39 -16 -23 -7 -24 -8 -5 -9 12
-1 23 -7 26 -13 2 -7 8 -9 13 -5 5 4 2 12 -6 17 -11 7 -3 10 27 10 23 0 44 5
46 10 3 6 4 5 3 -2 -1 -7 -13 -15 -27 -19 l-24 -7 25 -2 c14 -1 31 -2 39 -1 7
2 11 -4 8 -11 -2 -7 -9 -12 -14 -11 -5 1 -10 -14 -11 -33 -2 -28 4 -41 33 -68
38 -37 43 -46 20 -46 -11 0 -15 -11 -15 -40 0 -22 -4 -40 -10 -40 -5 0 -10 18
-10 40 0 22 -4 40 -10 40 -5 0 -10 -18 -10 -40 0 -33 -3 -40 -20 -40 -17 0
-20 7 -20 40 0 33 -3 40 -20 40 -17 0 -20 7 -20 40 l0 40 -40 0 c-31 0 -40 4
-40 18 0 13 -2 14 -9 3 -5 -8 -5 -27 0 -45 5 -17 9 -38 9 -46 0 -13 -1 -13
-10 0 -15 24 -21 6 -9 -28 6 -17 9 -39 7 -49 -9 -39 -29 99 -23 152 5 33 3 55
-2 55 -6 0 -9 -47 -9 -109 1 -60 -2 -104 -6 -98 -11 19 -15 5 -10 -45 4 -44 6
-47 35 -51 27 -3 25 -4 -10 -5 l-43 -2 0 38 c0 20 7 106 15 191 14 135 19 156
38 172 17 15 18 18 4 13 -21 -7 -22 -17 18 150 22 93 24 112 13 137 -15 34
-30 41 -61 30 -61 -23 -255 -180 -293 -236 -11 -16 -26 -29 -33 -27 -8 2 -10
-4 -6 -18 4 -14 2 -20 -7 -18 -7 2 -12 -4 -10 -12 2 -8 1 -12 -3 -8 -8 8 -35
-14 -29 -24 7 -11 -35 -30 -48 -22 -7 5 -8 3 -3 -6 6 -10 4 -12 -9 -7 -24 9
-31 -17 -18 -71 16 -73 6 -62 -19 18 -17 58 -21 88 -16 149 6 82 14 114 28
105 5 -3 6 2 3 10 -3 8 -1 23 6 33 9 16 10 15 5 -7 -4 -16 2 -11 16 15 28 53
72 119 82 123 4 2 3 10 -4 18 -10 12 -9 13 4 8 12 -4 20 2 27 20 5 14 14 26
20 26 5 0 10 8 10 18 0 23 29 64 40 57 10 -6 43 39 46 61 6 38 245 273 317
311 53 28 53 28 129 -1z m1701 -23 c-7 -2 -19 -2 -25 0 -7 3 -2 5 12 5 14 0
19 -2 13 -5z m902 -34 c86 -32 70 -49 -47 -49 -39 0 -100 -5 -135 -11 l-63
-11 34 -32 c109 -100 114 -192 16 -351 -61 -100 -102 -147 -200 -230 -77 -66
-254 -195 -266 -195 -3 0 -14 -9 -26 -20 -34 -32 -111 -68 -183 -86 -56 -14
-75 -15 -121 -5 -69 16 -124 66 -143 131 -7 25 -16 52 -19 60 -3 8 -4 29 -3
45 1 27 0 28 -10 11 -9 -14 -9 -36 -1 -85 19 -112 24 -171 14 -171 -11 0 -26
55 -24 83 1 9 -3 17 -8 17 -6 0 -8 11 -4 26 5 18 3 25 -4 20 -6 -3 -13 -2 -17
4 -3 5 -14 10 -24 10 -27 0 -72 74 -98 160 l-23 75 6 -60 c9 -83 -1 -66 -15
25 -7 41 -16 77 -22 81 -5 3 -13 38 -16 77 -7 83 -5 84 82 57 56 -16 74 -13
21 5 -19 6 -40 18 -46 26 -7 7 -18 14 -24 14 -6 0 -4 -5 4 -10 13 -8 12 -10
-3 -10 -14 0 -16 5 -11 28 4 15 7 27 8 28 1 0 33 19 71 42 200 118 426 207
684 267 186 44 252 52 423 54 116 1 146 -2 193 -20z m-2101 -5 c9 -8 16 -17
16 -19 0 -6 -32 6 -46 16 -6 5 -15 5 -19 1 -5 -4 -5 -1 -1 6 10 17 31 15 50
-4z m5233 -16 c-3 -8 -6 -5 -6 6 -1 11 2 17 5 13 3 -3 4 -12 1 -19z m63 12 c0
-5 -2 -10 -4 -10 -3 0 -8 5 -11 10 -3 6 -1 10 4 10 6 0 11 -4 11 -10z m17 -42
c-3 -7 -5 -2 -5 12 0 14 2 19 5 13 2 -7 2 -19 0 -25z m-47 -3 c0 -8 -4 -15
-10 -15 -5 0 -7 7 -4 15 4 8 8 15 10 15 2 0 4 -7 4 -15z m-3054 -99 c-10 -86
-25 -142 -52 -191 -31 -55 -170 -221 -232 -276 -50 -45 -250 -174 -257 -167
-3 2 35 33 83 68 138 101 209 167 282 262 84 109 114 170 135 273 26 136 25
133 37 111 6 -11 8 -43 4 -80z m3145 -33 c13 -16 12 -17 -3 -4 -10 7 -18 15
-18 17 0 8 8 3 21 -13z m-71 -148 c0 -8 -82 75 -100 100 -8 11 11 -6 43 -38
31 -31 57 -59 57 -62z m730 91 c0 -3 -4 -8 -10 -11 -5 -3 -10 -1 -10 4 0 6 5
11 10 11 6 0 10 -2 10 -4z m-1003 -54 c-27 -31 -46 -79 -40 -100 4 -19 -38
-161 -67 -227 -5 -11 -14 -40 -20 -65 -63 -259 -259 -750 -320 -805 -16 -14
-12 -4 14 37 40 64 52 92 141 333 69 187 124 369 155 515 11 52 32 131 46 175
28 87 96 202 102 171 2 -9 -3 -25 -11 -34z m-5967 35 c0 -2 -10 -12 -22 -23
l-23 -19 19 23 c18 21 26 27 26 19z m6483 -92 c-3 -9 -8 -14 -10 -11 -3 3 -2
9 2 15 9 16 15 13 8 -4z m-136 -158 c77 -131 136 -247 147 -287 4 -14 -19 27
-52 90 -33 64 -78 146 -101 183 -22 37 -41 70 -41 73 0 3 -9 19 -21 35 -11 16
-17 29 -12 29 4 0 40 -55 80 -123z m-6697 79 c0 -3 -4 -8 -10 -11 -5 -3 -10
-1 -10 4 0 6 5 11 10 11 6 0 10 -2 10 -4z m5511 -39 c-6 -8 -9 -22 -5 -30 15
-41 -86 -197 -129 -197 -10 0 -15 -5 -12 -10 4 -6 1 -9 -7 -8 -7 2 -12 -4 -10
-12 2 -8 0 -12 -4 -7 -4 4 -17 -1 -28 -10 -12 -10 7 12 41 47 43 45 73 90 99
145 39 85 54 109 62 100 3 -2 0 -11 -7 -18z m-1621 -97 c-23 -32 -121 -106
-180 -135 -19 -9 -30 -13 -25 -7 12 12 218 171 223 172 2 0 -6 -13 -18 -30z
m-90 -5 c0 -9 -111 -88 -116 -82 -5 4 26 30 86 69 29 19 30 20 30 13z m3483
-120 c26 -98 32 -165 15 -165 -5 0 -11 15 -15 33 -7 31 -7 31 -14 7 l-7 -25
-1 28 c-1 15 4 27 12 28 9 0 9 2 0 5 -7 3 -9 12 -6 20 3 8 0 14 -6 14 -6 0 -9
15 -7 38 2 20 1 59 -4 85 -11 73 4 43 33 -68z m-7200 -227 c8 -26 24 -60 35
-76 26 -35 141 -113 203 -136 51 -20 125 -89 158 -149 21 -38 28 -87 13 -87
-5 0 -14 -22 -20 -49 -10 -43 -50 -126 -57 -119 -2 2 13 50 32 108 l35 105
-56 57 c-32 32 -78 70 -104 84 -131 74 -181 107 -214 141 -50 51 -88 140 -88
204 0 66 -16 55 -25 -18 -7 -54 -8 -56 -17 -28 -10 36 -1 102 16 112 7 5 23
33 37 64 l24 57 6 -112 c4 -61 14 -132 22 -158z m3577 247 c-7 -8 -17 -15 -23
-15 -6 0 -2 7 9 15 25 19 30 19 14 0z m-1593 -107 c-3 -7 -5 -2 -5 12 0 14 2
19 5 13 2 -7 2 -19 0 -25z m5021 -105 c7 -60 14 -180 16 -268 5 -175 5 -174
-24 192 -6 72 -13 146 -17 164 -4 21 -3 30 4 26 6 -4 15 -55 21 -114z m-7868
72 c0 -8 -7 -15 -15 -15 -13 0 -14 3 -3 15 16 18 18 18 18 0z m7910 -133 c24
-215 31 -295 36 -417 3 -71 1 -150 -3 -175 -7 -36 -9 -19 -9 80 0 116 -25 480
-39 560 -4 19 -8 46 -11 60 -4 25 -4 25 6 2 5 -12 14 -62 20 -110z m-7906 80
c2 -4 -2 -15 -9 -25 -12 -17 -13 -16 -11 7 1 25 10 34 20 18z m705 -52 c-4
-30 -8 -83 -8 -117 -1 -35 -5 -63 -10 -63 -11 0 -3 164 11 208 14 47 17 36 7
-28z m5160 17 c-16 -13 -99 -57 -99 -53 0 7 83 56 94 56 5 0 7 -1 5 -3z
m-5804 -37 c4 -6 11 -7 17 -4 7 4 8 2 4 -4 -4 -6 -2 -21 4 -33 11 -19 10 -20
-12 -15 -12 3 -17 3 -10 0 6 -3 11 -15 11 -27 -1 -17 -2 -18 -6 -4 -2 9 -8 15
-13 12 -10 -6 -5 28 6 47 4 6 -1 17 -11 25 -11 7 -14 13 -8 13 7 0 15 -5 18
-10z m1582 -107 c-3 -10 -5 -4 -5 12 0 17 2 24 5 18 2 -7 2 -21 0 -30z m3980
-5 c-3 -7 -5 -2 -5 12 0 14 2 19 5 13 2 -7 2 -19 0 -25z m-246 -98 c68 -23
140 -51 159 -61 19 -10 107 -46 195 -79 88 -34 163 -67 167 -73 4 -7 8 -9 8
-5 0 14 161 -61 180 -84 19 -23 27 -82 12 -92 -5 -3 -22 3 -39 13 -55 34 -238
91 -292 91 -42 0 -51 -3 -51 -18 0 -10 5 -23 12 -30 9 -9 0 -12 -40 -12 -42 0
-52 -3 -52 -17 0 -9 -21 -36 -46 -61 -41 -39 -51 -43 -85 -40 -35 3 -38 1 -33
-17 4 -18 4 -18 -6 -2 -6 9 -9 26 -5 36 3 11 0 18 -8 18 -7 0 -13 -10 -13 -21
1 -12 -4 -20 -11 -19 -7 2 -10 -4 -6 -13 4 -10 9 -12 16 -5 7 7 14 5 23 -7 25
-32 7 -46 -22 -17 -9 8 -20 15 -24 15 -11 0 -50 -77 -50 -97 0 -7 -4 -13 -8
-13 -13 0 -53 -90 -46 -102 4 -7 2 -8 -4 -4 -7 4 -17 -4 -24 -21 -10 -23 -63
-117 -74 -132 -2 -2 -33 15 -69 38 -36 22 -68 41 -71 41 -2 0 -32 20 -65 45
l-61 45 -20 -37 c-11 -21 -29 -50 -39 -65 -11 -15 -23 -47 -28 -73 -11 -56
-16 -62 -36 -41 -19 18 -35 21 -35 5 0 -5 5 -7 10 -4 13 8 13 -1 -2 -28 -11
-21 -11 -21 -19 -2 -7 18 -8 17 -8 -5 -1 -20 -3 -22 -11 -10 -8 13 -10 12 -10
-2 0 -10 -4 -18 -10 -18 -5 0 -10 7 -10 15 0 20 -6 19 -41 -6 -16 -11 -33 -18
-38 -15 -13 8 -43 -23 -35 -36 5 -7 12 -4 20 7 8 10 16 16 20 13 3 -4 -4 -16
-15 -27 -12 -12 -21 -27 -21 -33 -1 -7 -8 -1 -16 15 -17 32 -20 33 -20 8 0
-11 5 -17 10 -14 5 3 6 1 2 -6 -4 -7 -17 -9 -29 -6 -21 6 -21 6 -3 -9 19 -15
18 -16 -5 -25 -28 -10 -53 4 -30 18 7 5 9 11 4 14 -5 3 -17 -3 -26 -14 -9 -10
-24 -19 -32 -19 -8 0 -15 -4 -15 -10 0 -5 9 -10 20 -10 11 0 20 -4 20 -9 0 -6
-12 -9 -27 -8 -15 1 -28 -3 -28 -10 0 -6 -4 -15 -9 -20 -5 -5 -6 -3 -2 5 9 14
-10 17 -19 2 -4 -6 -11 -7 -17 -4 -7 4 -8 2 -4 -4 4 -7 3 -12 -3 -12 -5 0 -23
-11 -39 -25 -16 -13 -32 -22 -35 -19 -13 14 -72 -139 -63 -163 3 -8 2 -12 -3
-8 -12 7 -34 -61 -71 -220 -16 -71 -46 -190 -65 -264 -19 -74 -35 -144 -35
-154 0 -41 -10 -8 -20 65 -8 54 -8 95 0 139 6 35 19 118 30 184 40 257 83 500
90 505 4 3 11 29 16 59 9 51 11 54 64 84 30 17 79 48 107 69 59 43 224 206
281 277 20 25 60 74 87 108 91 113 106 133 205 283 73 111 103 164 125 223 10
26 30 57 44 69 38 30 119 20 272 -32z m-355 -5 c-16 -62 -144 -295 -163 -295
-2 0 6 17 19 38 57 92 108 189 124 233 19 52 30 66 20 24z m-3626 -55 c0 -5
-7 -10 -16 -10 -8 0 -12 5 -9 10 3 6 10 10 16 10 5 0 9 -4 9 -10z m34 -36 c3
-8 -1 -14 -10 -14 -8 0 -12 -5 -9 -10 4 -6 15 -8 24 -5 11 3 18 0 18 -9 0 -9
-3 -14 -6 -13 -38 17 -59 32 -55 39 3 4 -4 8 -15 8 -31 0 -34 18 -4 22 36 5
50 0 57 -18z m123 -70 c-3 -3 -12 -4 -19 -1 -8 3 -5 6 6 6 11 1 17 -2 13 -5z
m80 -120 c92 -49 116 -67 141 -104 16 -25 87 -132 157 -238 88 -133 143 -207
181 -240 29 -26 54 -54 54 -62 1 -12 3 -12 14 2 12 16 16 14 45 -22 32 -40 29
-57 -4 -20 -15 17 -20 18 -43 6 -22 -12 -30 -11 -59 6 -18 11 -34 16 -34 11
-8 -51 -4 -76 15 -83 18 -7 18 -9 3 -9 -9 -1 -34 10 -55 23 -25 17 -58 27
-102 31 -142 13 -145 14 -157 43 -48 115 -85 179 -122 212 -36 31 -71 89 -71
115 0 35 -42 195 -51 195 -5 0 -9 7 -9 15 0 8 4 15 10 15 15 0 88 -69 132
-123 21 -27 38 -47 38 -44 0 3 -16 38 -35 78 -19 41 -35 81 -35 90 0 9 -7 22
-15 29 -9 7 -14 18 -12 24 5 14 -61 63 -155 115 -43 23 -78 44 -78 46 0 8 143
-56 247 -111z m-196 60 c62 -33 158 -118 146 -130 -3 -3 -22 5 -44 19 -21 13
-44 22 -52 19 -8 -3 -11 0 -7 6 10 17 -85 73 -118 70 -28 -3 -37 -16 -148
-238 -64 -129 -118 -231 -118 -227 0 4 14 36 31 70 18 34 40 84 49 112 10 27
38 93 63 145 25 52 54 116 66 143 25 58 39 60 132 11z m177 -6 c-9 -6 -7 -8 7
-7 44 3 59 -1 48 -12 -8 -8 -21 -8 -50 1 -48 16 -78 36 -65 44 6 3 18 -2 28
-11 17 -17 17 -17 12 5 -6 23 -6 23 13 6 15 -14 17 -19 7 -26z m1467 -34 c12
-3 26 -14 33 -24 11 -18 10 -18 -31 -6 -24 7 -52 18 -63 24 -17 10 -16 11 11
12 17 0 39 -3 50 -6z m3220 -94 c94 -34 188 -69 211 -76 54 -19 151 -114 115
-114 -5 0 -60 22 -122 49 -63 27 -130 52 -149 56 -19 4 -46 12 -60 17 -84 34
-116 12 -160 -108 -43 -121 -129 -353 -152 -411 -22 -57 -50 -89 -69 -77 -8 5
-10 3 -4 -6 6 -10 4 -12 -8 -7 -9 3 -19 2 -22 -3 -4 -6 -13 -7 -23 -1 -9 4
-24 6 -32 4 -9 -3 -8 0 3 7 14 9 22 8 34 -2 15 -11 16 -11 10 6 -5 14 -3 17 8
12 8 -3 14 -2 13 2 -1 4 11 21 27 38 30 31 74 137 134 319 16 50 41 123 55
162 30 84 33 148 9 183 -13 18 -13 22 -2 18 8 -3 91 -33 184 -68z m-505 20 c0
-5 -5 -10 -11 -10 -5 0 -7 5 -4 10 3 6 8 10 11 10 2 0 4 -4 4 -10z m-4433 -6
c-3 -3 -12 -4 -19 -1 -8 3 -5 6 6 6 11 1 17 -2 13 -5z m253 -59 c0 -5 -5 -3
-10 5 -5 8 -10 20 -10 25 0 6 5 3 10 -5 5 -8 10 -19 10 -25z m1157 -7 c-3 -8
-6 -5 -6 6 -1 11 2 17 5 13 3 -3 4 -12 1 -19z m5084 -128 c-8 -21 -10 -17 -9
25 1 70 12 102 16 45 2 -25 -1 -57 -7 -70z m-68 -35 c-3 -9 -8 -14 -10 -11 -3
3 -2 9 2 15 9 16 15 13 8 -4z m-4762 -56 c309 -141 647 -262 909 -324 199 -47
190 -44 190 -65 0 -11 -4 -20 -10 -20 -5 0 -10 -7 -10 -16 0 -11 6 -14 20 -9
22 7 25 -6 9 -40 -8 -16 -8 -15 -4 8 4 19 2 26 -5 22 -5 -3 -10 -12 -10 -19 0
-7 -13 -32 -29 -57 -17 -26 -31 -65 -35 -94 -15 -114 -10 -107 -83 -103 l-64
3 -27 -83 c-15 -46 -29 -81 -32 -78 -3 3 -6 -3 -7 -12 -1 -9 -9 -45 -17 -80
-25 -107 -39 -342 -34 -556 3 -111 3 -206 1 -213 -2 -7 -11 -9 -20 -6 -13 5
-13 3 -4 -14 15 -29 -4 -79 -32 -87 -66 -18 -231 5 -242 33 -4 9 -9 116 -12
239 -4 151 -10 222 -17 222 -6 0 -22 16 -35 36 -13 19 -33 39 -43 45 -10 5
-18 16 -18 23 0 8 -7 20 -16 27 -14 11 -18 11 -28 -2 -6 -9 -17 -14 -24 -11
-8 2 -20 -5 -28 -17 -8 -12 -21 -21 -29 -21 -9 0 -12 -6 -8 -16 5 -14 3 -15
-15 -5 -11 6 -44 10 -74 10 -61 -1 -71 1 -115 23 l-33 16 0 -228 c0 -154 5
-267 16 -342 16 -114 37 -229 49 -259 5 -14 -4 -18 -57 -24 -35 -3 -77 -10
-94 -15 -31 -8 -32 -6 -69 59 -21 36 -44 78 -52 94 -8 15 -28 123 -45 240 -27
190 -29 229 -24 372 8 223 89 747 182 1185 4 18 3 21 -4 11 -8 -12 -15 -10
-37 8 -42 32 -83 27 -147 -18 -42 -29 -59 -36 -68 -27 -8 8 -9 6 -4 -8 5 -12
4 -17 -3 -13 -5 3 -20 -1 -32 -9 -32 -23 -125 -148 -182 -244 -20 -33 -21 -34
-35 -15 -10 13 -14 41 -13 82 2 57 5 65 34 92 22 19 36 26 42 20 7 -7 12 -5
17 6 4 11 2 14 -7 9 -6 -3 0 5 15 20 15 14 32 26 38 26 5 0 11 6 12 13 0 6 2
17 2 23 1 11 36 50 36 39 0 -9 28 15 87 77 30 31 69 64 86 73 18 9 48 26 67
36 19 10 47 19 62 19 15 0 86 -27 159 -61z m4774 1 c3 -5 1 -10 -4 -10 -6 0
-11 5 -11 10 0 6 2 10 4 10 3 0 8 -4 11 -10z m-2444 -33 c-10 -9 -11 -8 -5 6
3 10 9 15 12 12 3 -3 0 -11 -7 -18z m-4205 -63 c-4 -14 -9 -24 -12 -21 -3 2
-2 17 2 31 3 15 9 25 11 22 3 -3 2 -17 -1 -32z m-150 -24 c28 -14 46 -31 55
-53 18 -42 154 -248 239 -362 65 -86 212 -236 330 -338 47 -40 50 -45 23 -34
-34 14 -214 181 -312 292 -81 91 -175 225 -246 353 -31 56 -64 107 -72 113 -8
7 -44 15 -81 19 -60 6 -64 8 -42 18 37 16 59 14 106 -8z m6704 -60 c0 -11 -6
-20 -12 -20 -7 -1 -26 -21 -41 -45 -16 -25 -66 -73 -113 -110 -87 -67 -122
-81 -85 -34 11 15 17 29 14 33 -3 3 -1 6 6 6 7 0 24 14 38 31 14 16 31 28 37
26 14 -5 34 9 56 38 8 11 0 7 -17 -8 -22 -21 -33 -25 -38 -16 -5 7 -4 10 2 6
6 -4 28 14 48 39 20 25 40 43 43 40 2 -3 -1 -12 -8 -21 -23 -27 -4 -26 21 1
16 19 20 28 11 31 -18 7 -4 23 19 23 12 0 19 -7 19 -20z m-6863 -203 c-2 -23
-3 -1 -3 48 0 50 1 68 3 42 2 -26 2 -67 0 -90z m4025 71 c-9 -9 -12 -7 -12 12
0 19 3 21 12 12 9 -9 9 -15 0 -24z m28 -28 c0 -5 -2 -10 -4 -10 -3 0 -8 5 -11
10 -3 6 -1 10 4 10 6 0 11 -4 11 -10z m3319 -7 c1 10 5 16 11 12 6 -3 5 -15
-2 -30 -18 -40 -42 -28 -31 15 6 22 7 23 14 4 7 -17 8 -17 8 -1z m-3494 -13
c3 -5 2 -10 -4 -10 -5 0 -13 5 -16 10 -3 6 -2 10 4 10 5 0 13 -4 16 -10z
m-2379 -45 c-3 -8 -1 -15 4 -15 6 0 10 -6 10 -12 0 -7 13 -39 29 -70 27 -56
29 -79 3 -38 -14 22 -37 17 -28 -6 3 -8 0 -13 -7 -11 -7 1 -11 -6 -11 -15 1
-10 -2 -16 -6 -13 -14 8 -170 -217 -170 -244 0 -5 -6 -16 -13 -23 -12 -12 -51
-79 -101 -173 l-21 -40 -3 34 c-2 19 0 37 5 40 13 9 33 59 33 81 0 11 5 20 10
20 6 0 10 6 10 14 0 8 14 45 31 83 42 92 52 116 55 132 1 7 7 18 13 24 13 13
14 27 3 27 -4 0 -16 -14 -26 -30 -9 -17 -22 -28 -27 -24 -12 7 7 39 64 106 22
26 44 45 50 41 6 -4 8 0 4 10 -4 10 -2 16 5 14 6 -1 13 4 16 12 3 9 0 11 -9 6
-8 -4 6 13 31 38 51 50 54 53 46 32z m2324 -15 c0 -5 -5 -10 -11 -10 -5 0 -7
5 -4 10 3 6 8 10 11 10 2 0 4 -4 4 -10z m1135 1 c-10 -9 -52 -34 -165 -97 -36
-20 -81 -47 -100 -60 -41 -27 -90 -41 -90 -26 0 6 8 13 18 16 9 2 4 4 -13 3
-21 -1 -30 3 -30 13 0 10 31 26 90 48 50 18 133 50 185 72 97 40 122 47 105
31z m1545 -20 c0 -5 -8 -11 -17 -15 -10 -3 -25 -9 -33 -12 -8 -3 -1 4 15 15
34 24 35 24 35 12z m-6493 -53 c-2 -13 -4 -5 -4 17 -1 22 1 32 4 23 2 -10 2
-28 0 -40z m6577 40 c-6 -18 -88 -63 -291 -163 -95 -47 -177 -93 -183 -103
-13 -19 -12 -14 14 63 l16 51 88 21 c52 12 137 45 212 81 130 63 153 70 144
50z m-2910 -33 c11 -8 16 -15 10 -15 -5 0 -18 7 -28 15 -11 8 -16 15 -10 15 5
0 18 -7 28 -15z m563 -5 c140 -9 213 -31 250 -73 15 -17 16 -20 2 -14 -13 4
-16 1 -12 -14 5 -18 0 -17 -43 11 -81 51 -126 59 -381 62 -228 3 -283 13 -151
28 91 10 185 11 335 0z m-960 -42 c-3 -7 -5 -2 -5 12 0 14 2 19 5 13 2 -7 2
-19 0 -25z m3870 -10 c-3 -8 -6 -5 -6 6 -1 11 2 17 5 13 3 -3 4 -12 1 -19z
m-7117 -38 c6 -20 6 -30 1 -24 -11 10 -27 72 -17 63 4 -4 11 -21 16 -39z
m-708 5 c3 -14 1 -25 -3 -25 -5 0 -9 11 -9 25 0 14 2 25 4 25 2 0 6 -11 8 -25z
m7813 -47 c-10 -65 -46 -220 -51 -216 -1 2 4 42 12 88 9 47 18 104 21 128 3
23 9 42 15 42 6 0 7 -17 3 -42z m-7786 -53 c0 -5 -4 -3 -9 5 -5 8 -9 22 -9 30
0 16 17 -16 18 -35z m1954 -20 c-3 -9 -8 -14 -10 -11 -3 3 -2 9 2 15 9 16 15
13 8 -4z m-22 -17 c11 -21 11 -22 -5 -9 -13 11 -20 11 -28 3 -12 -12 -10 -13
14 -16 6 0 13 -8 15 -16 4 -13 3 -13 -6 0 -9 13 -11 12 -11 -4 0 -11 -10 -31
-22 -44 -13 -14 -17 -22 -10 -18 6 4 12 3 12 -3 0 -5 -5 -11 -11 -13 -6 -2
-27 -42 -46 -88 -19 -47 -50 -122 -69 -167 -49 -118 -76 -227 -72 -284 2 -30
-1 -48 -7 -46 -6 2 -9 46 -9 108 1 84 7 118 28 179 14 41 24 62 21 45 -4 -30
-4 -30 12 5 8 19 17 53 20 75 7 59 12 72 22 56 6 -9 10 -5 15 14 4 14 4 31 0
37 -4 7 -3 8 4 4 11 -7 44 51 47 84 4 28 17 60 26 60 12 0 11 -7 -2 -33 -12
-22 -11 -22 9 -4 19 18 23 39 10 53 -8 7 13 44 24 44 4 0 13 -10 19 -22z
m4909 13 c0 -5 -7 -12 -16 -15 -14 -5 -15 -4 -4 9 14 17 20 19 20 6z m-6821
-41 c0 -10 -3 -8 -9 5 -12 27 -12 43 0 25 5 -8 9 -22 9 -30z m6776 1 c-3 -6
-11 -11 -17 -11 -6 0 -6 6 2 15 14 17 26 13 15 -4z m35 5 c0 -3 -4 -8 -10 -11
-5 -3 -10 -1 -10 4 0 6 5 11 10 11 6 0 10 -2 10 -4z m-6113 -28 c-3 -8 -6 -5
-6 6 -1 11 2 17 5 13 3 -3 4 -12 1 -19z m6870 0 c-3 -8 -6 -5 -6 6 -1 11 2 17
5 13 3 -3 4 -12 1 -19z m-6763 -243 c16 -26 23 -45 17 -41 -6 4 -21 26 -32 49
-12 23 -28 49 -36 58 -8 10 -21 41 -28 70 -8 30 -19 55 -24 57 -6 2 -7 10 -4
18 3 10 20 -19 43 -74 20 -49 49 -111 64 -137z m997 154 c-12 -19 -21 -30 -21
-26 0 14 31 69 36 64 3 -3 -4 -20 -15 -38z m5747 11 c-1 -20 -5 -27 -11 -21
-5 5 -6 18 -2 30 9 30 14 26 13 -9z m132 -115 c-7 -31 -17 -58 -20 -60 -4 -2
0 25 8 60 9 36 18 62 20 60 3 -3 -1 -30 -8 -60z m385 44 c-7 -10 -35 -1 -35
11 0 5 9 6 20 3 11 -3 17 -9 15 -14z m-28 -31 c-3 -8 -6 -5 -6 6 -1 11 2 17 5
13 3 -3 4 -12 1 -19z m204 -8 c5 0 9 -5 9 -11 0 -8 -5 -8 -15 1 -8 7 -14 20
-14 29 1 13 2 13 6 -1 2 -10 9 -18 14 -18z m-750 -53 c-10 -9 -11 -8 -5 6 3
10 9 15 12 12 3 -3 0 -11 -7 -18z m-6971 -37 c0 -5 -4 -10 -10 -10 -5 0 -10 5
-10 10 0 6 5 10 10 10 6 0 10 -4 10 -10z m6940 -127 c-1 -18 -18 -35 -24 -24
-4 6 -2 11 4 11 6 0 8 5 5 10 -3 6 -1 10 4 10 6 0 11 -3 11 -7z m-7271 -67
c-6 -6 -13 -6 -21 2 -7 7 -9 12 -5 12 3 0 2 12 -4 28 l-10 27 25 -30 c15 -19
21 -34 15 -39z m7251 20 c0 -3 -4 -8 -10 -11 -5 -3 -10 -1 -10 4 0 6 5 11 10
11 6 0 10 -2 10 -4z m-35 -81 c-22 -60 -28 -54 -8 8 9 26 18 45 21 43 3 -3 -3
-26 -13 -51z m-7190 34 c11 -17 -1 -21 -15 -4 -8 9 -8 15 -2 15 6 0 14 -5 17
-11z m3617 -144 c3 -49 3 -79 0 -65 -4 23 -5 24 -13 5 -6 -14 -7 -6 -4 25 2
25 4 65 4 89 1 72 9 43 13 -54z m3529 12 c-10 -9 -11 -8 -5 6 3 10 9 15 12 12
3 -3 0 -11 -7 -18z m-6617 -130 c88 -60 143 -76 259 -77 53 0 97 -4 97 -9 0
-5 -4 -21 -9 -34 -13 -34 17 -138 64 -222 46 -84 32 -79 -20 7 -21 35 -42 64
-46 66 -4 2 -6 9 -3 16 5 14 -41 76 -57 76 -5 0 -9 -10 -9 -22 0 -13 -5 -30
-10 -38 -7 -11 -8 -6 -5 18 2 17 -1 32 -6 32 -5 0 -9 -6 -9 -12 0 -9 -4 -8
-10 2 -9 13 -11 13 -21 0 -8 -12 -9 -10 -4 9 5 16 4 21 -4 17 -6 -4 -12 -1
-12 6 -1 7 -2 19 -3 27 0 7 -35 25 -77 40 -42 15 -100 44 -130 64 -135 93
-176 134 -165 163 5 12 19 4 63 -36 31 -28 84 -70 117 -93z m881 3 c3 -5 1
-10 -4 -10 -6 0 -11 5 -11 10 0 6 2 10 4 10 3 0 8 -4 11 -10z m5604 -93 c-13
-25 -27 -43 -32 -40 -5 3 -5 8 0 12 4 3 17 23 28 43 27 53 30 40 4 -15z
m-3425 -1 c-3 -21 -8 -35 -11 -32 -2 2 -1 20 3 40 3 21 8 35 11 32 2 -2 1 -20
-3 -40z m-2556 -13 c0 -26 -3 -32 -9 -22 -7 13 -2 59 6 59 2 0 3 -17 3 -37z
m5945 -58 c-3 -9 -8 -14 -10 -11 -3 3 -2 9 2 15 9 16 15 13 8 -4z m-787 -207
l29 -33 -32 29 c-31 28 -38 36 -30 36 2 0 16 -15 33 -32z m642 -38 c-32 -52
-42 -62 -31 -32 6 18 51 82 58 82 2 0 -10 -22 -27 -50z m-3273 -91 c44 -33
237 -149 248 -149 2 0 28 -14 58 -31 30 -17 45 -28 34 -25 l-20 6 20 -16 c18
-15 18 -16 2 -10 -10 3 -28 6 -38 6 -11 0 -18 4 -15 9 4 5 -3 7 -14 4 -11 -3
-20 0 -20 6 0 6 -6 11 -12 11 -7 0 -42 14 -78 31 -36 17 -72 32 -80 33 -8 1
-28 8 -45 15 -16 7 -49 14 -72 15 -22 0 -41 3 -41 6 1 22 -5 30 -26 30 -13 0
-26 -4 -28 -8 -4 -12 -131 -48 -212 -62 -38 -6 -101 -22 -140 -34 -40 -13
-105 -29 -146 -35 -41 -6 -119 -21 -173 -32 -67 -14 -106 -18 -119 -12 -18 8
-11 11 38 22 32 7 106 24 164 37 58 14 137 32 175 40 39 9 108 26 155 39 47
13 128 31 181 41 80 15 94 20 83 32 -11 10 -22 11 -51 3 -75 -21 -77 -10 -5
23 41 19 78 38 84 44 14 14 33 6 93 -39z m3175 -3 c0 -2 -8 -10 -17 -17 -16
-13 -17 -12 -4 4 13 16 21 21 21 13z m-5516 -265 c-6 -6 -79 62 -76 72 1 5 -3
17 -10 26 -6 9 11 -9 39 -39 28 -30 49 -57 47 -59z m6166 88 c0 -6 -4 -7 -10
-4 -5 3 -10 11 -10 16 0 6 5 7 10 4 6 -3 10 -11 10 -16z m-750 -13 c0 -2 -8
-10 -17 -17 -16 -13 -17 -12 -4 4 13 16 21 21 21 13z m-4015 -58 c3 -3 -21 -9
-54 -13 -40 -5 -75 -16 -105 -36 -39 -24 -46 -33 -46 -61 0 -42 -17 -25 -25
24 -8 46 11 65 73 73 26 4 58 10 72 14 29 9 76 9 85 -1z m-388 -50 c-3 -8 -6
-5 -6 6 -1 11 2 17 5 13 3 -3 4 -12 1 -19z m153 8 c0 -3 -4 -8 -10 -11 -5 -3
-10 -1 -10 4 0 6 5 11 10 11 6 0 10 -2 10 -4z m-33 -12 c-3 -3 -12 -4 -19 -1
-8 3 -5 6 6 6 11 1 17 -2 13 -5z m-1472 -566 c-7 -28 -9 -30 -15 -13 -4 11 -2
28 4 37 15 24 19 15 11 -24z m40 -53 c-8 -21 -18 -35 -22 -31 -4 4 1 22 12 41
24 45 31 38 10 -10z m-155 -14 c0 -22 -25 -51 -43 -51 -7 0 -4 7 5 14 10 7 15
16 11 19 -3 4 -1 7 5 7 7 0 12 7 12 15 0 8 2 15 5 15 3 0 5 -9 5 -19z m157
-53 c-3 -8 -6 -5 -6 6 -1 11 2 17 5 13 3 -3 4 -12 1 -19z m5643 -8 c0 -5 -7
-7 -15 -4 -8 4 -15 8 -15 10 0 2 7 4 15 4 8 0 15 -4 15 -10z m-5090 -41 l35
-30 -42 27 c-24 15 -43 28 -43 30 0 11 18 0 50 -27z m5070 20 c0 -5 3 -8 8 -6
4 3 13 -1 20 -9 9 -10 9 -14 1 -14 -9 0 -8 -4 0 -14 10 -12 8 -17 -10 -26 -29
-16 -46 7 -21 28 9 7 13 11 7 9 -5 -3 -18 6 -28 19 -17 23 -17 24 3 24 11 0
20 -5 20 -11z m-5100 -83 c0 -11 -19 -15 -25 -6 -3 5 1 10 9 10 9 0 16 -2 16
-4z m113 -11 c-3 -9 -8 -14 -10 -11 -3 3 -2 9 2 15 9 16 15 13 8 -4z m-163
-50 c0 -8 -2 -15 -4 -15 -2 0 -6 7 -10 15 -3 8 -1 15 4 15 6 0 10 -7 10 -15z
m5140 -24 c0 -6 -9 -9 -20 -8 -11 1 -20 5 -20 9 0 4 9 8 20 8 11 0 20 -4 20
-9z m-6050 -20 c0 -5 -8 -17 -17 -27 -21 -20 -31 -2 -11 20 15 17 28 20 28 7z
m790 -156 c0 -5 -5 -3 -10 5 -5 8 -10 20 -10 25 0 6 5 3 10 -5 5 -8 10 -19 10
-25z m60 -30 c0 -8 -2 -15 -4 -15 -2 0 -6 7 -10 15 -3 8 -1 15 4 15 6 0 10 -7
10 -15z m4415 -5 c3 -5 1 -10 -4 -10 -6 0 -11 5 -11 10 0 6 2 10 4 10 3 0 8
-4 11 -10z m-215 -90 c0 -5 -4 -10 -10 -10 -5 0 -10 5 -10 10 0 6 5 10 10 10
6 0 10 -4 10 -10z m40 -10 c0 -5 -4 -10 -10 -10 -5 0 -10 5 -10 10 0 6 5 10
10 10 6 0 10 -4 10 -10z m-70 -9 c0 -12 -20 -25 -27 -18 -7 7 6 27 18 27 5 0
9 -4 9 -9z m-133 -77 c-3 -3 -12 -4 -19 -1 -8 3 -5 6 6 6 11 1 17 -2 13 -5z
m-12 -34 c3 -5 2 -10 -4 -10 -5 0 -13 5 -16 10 -3 6 -2 10 4 10 5 0 13 -4 16
-10z m-35 -61 c0 -5 -4 -9 -10 -9 -5 0 -10 7 -10 16 0 8 5 12 10 9 6 -3 10
-10 10 -16z m40 0 c0 -18 -2 -19 -15 -5 -8 8 -15 17 -15 20 0 3 7 6 15 6 9 0
15 -9 15 -21z m-2593 -5 c-3 -3 -12 -4 -19 -1 -8 3 -5 6 6 6 11 1 17 -2 13 -5z
m1803 2 c0 -3 -4 -8 -10 -11 -5 -3 -10 -1 -10 4 0 6 5 11 10 11 6 0 10 -2 10
-4z m-90 -26 c0 -5 -4 -10 -9 -10 -6 0 -13 5 -16 10 -3 6 1 10 9 10 9 0 16 -4
16 -10z m-64 -12 c4 -7 3 -8 -4 -4 -7 4 -12 2 -12 -5 0 -7 -3 -10 -6 -6 -6 5
3 27 11 27 2 0 7 -5 11 -12z m121 -4 c-3 -3 -12 -4 -19 -1 -8 3 -5 6 6 6 11 1
17 -2 13 -5z m-157 -8 c0 -3 -4 -8 -10 -11 -5 -3 -10 -1 -10 4 0 6 5 11 10 11
6 0 10 -2 10 -4z m255 -17 c4 -6 4 -13 0 -17 -3 -3 -10 -1 -14 7 -6 10 -10 9
-15 -4 -9 -25 -7 -42 4 -25 7 12 11 8 16 -18 4 -18 11 -35 15 -38 5 -3 5 -13
0 -22 -10 -18 19 -97 36 -97 4 0 7 -4 5 -9 -1 -4 10 -6 27 -4 26 4 29 2 28
-21 -2 -18 3 -26 18 -28 11 -1 14 0 8 3 -28 12 -11 26 27 22 42 -4 56 8 18 15
-17 3 -14 5 10 6 17 0 32 6 32 12 0 5 4 8 9 4 5 -3 12 4 16 15 3 11 11 20 17
20 6 0 8 3 5 7 -4 3 -2 11 3 18 5 6 6 25 2 41 -11 45 0 100 18 89 4 -3 7 3 6
13 -1 12 8 18 27 20 19 2 27 -1 25 -10 -2 -7 3 -12 11 -10 11 2 12 0 3 -10
-14 -17 1 -44 19 -33 12 8 12 6 -8 -42 -3 -7 0 -13 7 -13 9 0 11 -13 6 -50 -5
-34 -3 -50 4 -50 22 0 40 -29 40 -64 0 -24 -5 -36 -14 -36 -9 0 -12 -8 -8 -25
l4 -25 -128 4 c-71 2 -149 5 -174 6 -25 1 -128 2 -230 1 -104 -1 -197 2 -212
8 -14 5 -29 7 -32 4 -3 -4 -6 2 -6 11 0 13 5 16 18 11 13 -5 14 -3 5 6 -11 11
-7 39 9 49 4 4 19 28 33 55 18 37 21 51 12 57 -8 5 -7 8 4 8 12 0 16 8 15 29
0 20 -4 27 -11 21 -7 -6 -12 1 -13 21 -2 19 2 28 8 24 5 -3 10 -2 10 3 0 4 37
14 83 20 139 20 162 24 166 28 8 8 30 4 36 -7z m638 4 c-7 -2 -19 -2 -25 0 -7
3 -2 5 12 5 14 0 19 -2 13 -5z m81 -4 c-2 -4 -15 -9 -28 -11 -16 -3 -23 -1
-19 7 2 7 15 12 28 11 13 0 21 -4 19 -7z m-74 -39 c0 -5 -5 -10 -11 -10 -5 0
-7 5 -4 10 3 6 8 10 11 10 2 0 4 -4 4 -10z m53 -27 c-7 -40 -13 -57 -19 -50
-7 7 7 77 16 77 4 0 5 -12 3 -27z m-2363 -42 c0 -20 6 -31 18 -34 12 -3 11 -5
-6 -6 -16 -1 -26 6 -29 19 -3 11 -8 18 -12 16 -4 -3 -12 3 -18 13 -9 14 -6 17
18 19 26 2 29 -1 29 -27z m47 13 c-3 -3 -12 -4 -19 -1 -8 3 -5 6 6 6 11 1 17
-2 13 -5z m413 -1 c0 -5 -5 -15 -10 -23 -7 -12 -9 -10 -7 8 1 19 17 33 17 15z
m-243 -125 c-3 -8 -6 -5 -6 6 -1 11 2 17 5 13 3 -3 4 -12 1 -19z m343 2 c8 -5
11 -10 5 -10 -5 0 -17 5 -25 10 -8 5 -10 10 -5 10 6 0 17 -5 25 -10z m18 -37
c-17 -4 -23 -16 -18 -38 1 -6 -3 -6 -10 1 -16 16 -1 44 24 43 16 -1 17 -2 4
-6z m44 -26 c4 -33 3 -33 -24 -23 -30 11 -38 36 -12 36 8 0 12 -4 9 -10 -3 -5
-1 -10 4 -10 6 0 11 9 11 20 0 32 7 23 12 -13z m-102 14 c0 -5 -9 -11 -21 -14
-16 -4 -18 -3 -8 9 13 16 29 19 29 5z m1680 -71 c0 -5 -2 -10 -4 -10 -3 0 -8
5 -11 10 -3 6 -1 10 4 10 6 0 11 -4 11 -10z"/>
<path d="M5192 9159 c18 -12 58 -11 58 1 0 5 -16 9 -35 8 -23 -1 -31 -4 -23
-9z"/>
<path d="M4340 9024 c-25 -7 -55 -13 -67 -13 -13 -1 -23 -6 -23 -12 0 -6 8 -8
18 -6 9 3 42 11 72 17 62 14 99 30 65 28 -11 0 -40 -6 -65 -14z"/>
<path d="M5428 9031 c12 -7 62 -4 62 5 0 2 -17 4 -37 4 -24 0 -33 -3 -25 -9z"/>
<path d="M4850 8884 c-26 -14 -34 -22 -20 -19 14 4 50 9 80 11 53 4 54 4 25
-10 -40 -18 -149 -31 -140 -17 4 7 -4 6 -22 -1 -26 -12 -26 -13 -5 -16 12 -2
22 -8 22 -13 0 -5 3 -8 8 -7 4 0 14 -1 22 -5 22 -8 108 -25 165 -32 55 -6 214
-40 285 -60 25 -7 62 -16 83 -19 42 -8 164 -57 337 -136 121 -55 159 -66 187
-56 13 6 14 9 5 15 -10 6 -1 20 32 51 25 24 46 47 46 51 0 8 -221 97 -376 150
-121 42 -245 72 -469 114 -166 31 -208 31 -265 -1z"/>
<path d="M3040 8550 c-8 -5 -10 -10 -5 -10 6 0 17 5 25 10 8 5 11 10 5 10 -5
0 -17 -5 -25 -10z"/>
<path d="M4228 8489 c27 -45 27 -65 3 -171 -11 -46 -23 -128 -26 -183 -11
-166 -28 -197 -181 -322 -23 -18 -32 -30 -22 -29 28 3 180 132 199 168 5 10
18 98 29 195 10 98 23 198 29 223 8 39 15 116 12 144 -1 5 -8 3 -16 -4 -12
-10 -18 -10 -32 1 -13 11 -12 5 5 -22z"/>
<path d="M3985 8490 c-13 -6 -15 -9 -5 -9 8 0 22 4 30 9 18 12 2 12 -25 0z"/>
<path d="M2643 8086 c-54 -41 -116 -93 -138 -117 -36 -39 -34 -38 25 12 36 30
97 79 135 109 85 65 91 70 82 70 -3 0 -50 -33 -104 -74z"/>
<path d="M2542 8064 c-7 -8 -8 -14 -3 -14 10 0 25 19 20 25 -2 1 -10 -3 -17
-11z"/>
<path d="M5051 7937 c-13 -76 -13 -103 0 -62 12 35 23 125 16 125 -3 0 -10
-28 -16 -63z"/>
<path d="M6510 7955 c-19 -7 -28 -13 -20 -13 8 0 31 6 50 13 19 7 28 13 20 13
-8 0 -31 -6 -50 -13z"/>
<path d="M4245 7930 l-30 -8 30 0 c17 0 41 4 55 8 l25 8 -25 0 c-14 0 -38 -4
-55 -8z"/>
<path d="M6363 7918 c-52 -23 -13 -22 57 2 52 17 53 18 18 17 -20 -1 -54 -10
-75 -19z"/>
<path d="M2399 7863 c-13 -16 -12 -17 4 -4 9 7 17 15 17 17 0 8 -8 3 -21 -13z"/>
<path d="M3959 7763 c-13 -16 -12 -17 4 -4 9 7 17 15 17 17 0 8 -8 3 -21 -13z"/>
<path d="M3890 7710 l-35 -31 37 23 c21 13 38 26 38 31 0 11 -3 9 -40 -23z"/>
<path d="M3827 7660 c-9 -11 -13 -20 -8 -20 11 0 35 29 29 35 -2 2 -12 -4 -21
-15z"/>
<path d="M3785 7629 c-4 -6 -5 -12 -2 -15 2 -3 7 2 10 11 7 17 1 20 -8 4z"/>
<path d="M3709 7563 c-13 -16 -12 -17 4 -4 9 7 17 15 17 17 0 8 -8 3 -21 -13z"/>
<path d="M3643 7503 c-22 -21 -30 -31 -19 -23 33 24 71 60 65 60 -4 0 -24 -17
-46 -37z"/>
<path d="M4152 7300 c0 -14 2 -19 5 -12 2 6 2 18 0 25 -3 6 -5 1 -5 -13z"/>
<path d="M2700 7120 c0 -16 5 -30 10 -30 6 0 10 14 10 30 0 17 -4 30 -10 30
-5 0 -10 -13 -10 -30z"/>
<path d="M1907 6608 c-20 -28 -34 -55 -30 -61 3 -5 12 5 20 22 9 17 19 31 24
31 5 0 9 7 9 15 0 8 4 15 9 15 5 0 11 7 15 15 12 32 -13 13 -47 -37z"/>
<path d="M1721 6454 c0 -11 3 -14 6 -6 3 7 2 16 -1 19 -3 4 -6 -2 -5 -13z"/>
<path d="M1610 4287 c0 -7 7 -22 15 -33 13 -17 14 -16 4 14 -11 33 -19 41 -19
19z"/>
<path d="M1650 4285 c0 -5 5 -17 10 -25 5 -8 10 -10 10 -5 0 6 -5 17 -10 25
-5 8 -10 11 -10 5z"/>
<path d="M1870 3385 c18 -33 38 -64 43 -70 6 -5 -4 17 -22 50 -18 33 -38 65
-44 70 -5 6 5 -17 23 -50z"/>
<path d="M1970 3233 c5 -2 8 -9 5 -13 -3 -5 -1 -11 4 -14 5 -4 8 2 7 11 -2 9
-8 18 -15 19 -6 1 -7 0 -1 -3z"/>
<path d="M2010 3189 c0 -5 -5 -7 -11 -4 -6 4 6 -17 27 -46 48 -70 60 -82 40
-42 -12 24 -13 33 -3 37 6 3 3 4 -7 3 -10 -1 -21 4 -24 12 -3 9 0 11 9 6 8 -5
11 -4 6 1 -5 5 -14 9 -20 9 -7 0 -11 8 -9 18 2 9 0 17 -3 17 -3 0 -5 -5 -5
-11z"/>
<path d="M2035 3190 c3 -5 8 -10 11 -10 2 0 4 5 4 10 0 6 -5 10 -11 10 -5 0
-7 -4 -4 -10z"/>
<path d="M2136 3002 c-3 -5 1 -9 9 -9 8 0 12 4 9 9 -3 4 -7 8 -9 8 -2 0 -6 -4
-9 -8z"/>
<path d="M2270 2812 c6 -13 14 -21 18 -18 3 4 -2 14 -12 24 -18 16 -18 16 -6
-6z"/>
<path d="M2520 2632 c0 -5 7 -15 15 -22 8 -7 15 -8 15 -2 0 5 -7 15 -15 22 -8
7 -15 8 -15 2z"/>
<path d="M7080 8616 c0 -2 16 -13 36 -25 19 -12 32 -16 29 -11 -7 11 -65 43
-65 36z"/>
<path d="M8025 7570 c3 -5 8 -10 11 -10 2 0 4 5 4 10 0 6 -5 10 -11 10 -5 0
-7 -4 -4 -10z"/>
<path d="M8078 7491 c9 -16 18 -28 20 -27 5 6 -21 56 -29 56 -5 0 0 -13 9 -29z"/>
<path d="M8275 7080 c3 -5 8 -10 11 -10 2 0 4 5 4 10 0 6 -5 10 -11 10 -5 0
-7 -4 -4 -10z"/>
<path d="M8291 7024 c0 -11 3 -14 6 -6 3 7 2 16 -1 19 -3 4 -6 -2 -5 -13z"/>
<path d="M8041 7194 c0 -11 3 -14 6 -6 3 7 2 16 -1 19 -3 4 -6 -2 -5 -13z"/>
<path d="M8117 6968 c7 -38 13 -49 13 -24 0 9 5 14 10 11 15 -9 12 15 -4 31
-22 21 -26 17 -19 -18z"/>
<path d="M8210 7895 c13 -14 26 -23 28 -20 7 7 -29 45 -41 45 -6 0 0 -11 13
-25z"/>
<path d="M6106 7524 c-4 -9 -4 -19 -1 -22 2 -3 7 3 11 12 4 9 4 19 1 22 -2 3
-7 -3 -11 -12z"/>
<path d="M6198 5893 c12 -2 32 -2 45 0 12 2 2 4 -23 4 -25 0 -35 -2 -22 -4z"/>
<path d="M1500 6980 c-6 -11 -8 -20 -6 -20 3 0 10 9 16 20 6 11 8 20 6 20 -3
0 -10 -9 -16 -20z"/>
<path d="M2229 6713 c-13 -16 -12 -17 4 -4 16 13 21 21 13 21 -2 0 -10 -8 -17
-17z"/>
<path d="M2683 6693 c-6 -16 -37 -69 -101 -173 -27 -44 3 -8 50 60 56 80 82
130 68 130 -6 0 -14 -8 -17 -17z"/>
<path d="M3310 6519 c-30 -16 -71 -43 -90 -60 l-35 -30 40 24 c22 13 70 37
107 53 37 15 65 32 62 36 -9 14 -27 9 -84 -23z"/>
<path d="M3123 6384 c-46 -44 -46 -44 -7 -15 40 30 71 61 61 61 -3 0 -27 -21
-54 -46z"/>
<path d="M1959 6103 l-24 -28 28 24 c25 23 32 31 24 31 -2 0 -14 -12 -28 -27z"/>
<path d="M3490 5805 c-19 -7 -28 -13 -20 -13 8 0 31 6 50 13 19 7 28 13 20 13
-8 0 -31 -6 -50 -13z"/>
<path d="M3265 5647 c11 -7 60 -36 109 -63 48 -27 99 -59 113 -71 38 -36 83
-57 96 -44 6 6 7 11 2 11 -6 0 -57 29 -114 65 -58 36 -109 65 -115 65 -6 0
-28 11 -48 25 -20 14 -43 25 -50 25 -7 0 -4 -6 7 -13z"/>
<path d="M3790 6380 c0 -5 5 -10 10 -10 6 0 10 5 10 10 0 6 -4 10 -10 10 -5 0
-10 -4 -10 -10z"/>
<path d="M3981 6284 c0 -11 3 -14 6 -6 3 7 2 16 -1 19 -3 4 -6 -2 -5 -13z"/>
<path d="M3991 6229 c0 -9 2 -38 6 -65 6 -41 8 -45 13 -24 4 14 3 30 -1 35 -4
6 -9 24 -12 40 -2 17 -5 23 -6 14z"/>
<path d="M3962 6130 c0 -14 2 -19 5 -12 2 6 2 18 0 25 -3 6 -5 1 -5 -13z"/>
<path d="M7261 6329 c-6 -18 -9 -34 -7 -36 2 -2 9 10 15 28 6 18 9 34 7 36 -2
2 -9 -10 -15 -28z"/>
<path d="M7216 6234 c-10 -25 1 -29 14 -5 6 12 7 21 1 21 -5 0 -12 -7 -15 -16z"/>
<path d="M2120 5700 c8 -6 24 -15 35 -21 16 -8 15 -6 -4 10 -13 12 -28 21 -35
21 -6 0 -4 -5 4 -10z"/>
<path d="M6548 5515 c-3 -11 -9 -29 -13 -40 -4 -14 -1 -12 9 5 l16 25 -3 -24
c-1 -14 4 -26 13 -29 13 -5 13 -3 1 11 -11 15 -11 17 2 17 9 0 19 -4 22 -10 3
-5 16 -10 28 -10 16 0 10 6 -20 19 -22 11 -43 27 -45 38 -4 17 -4 17 -10 -2z"/>
<path d="M6520 5406 c0 -8 5 -18 10 -21 6 -3 10 1 10 9 0 8 -4 18 -10 21 -5 3
-10 -1 -10 -9z"/>
<path d="M6477 5343 c-12 -11 -8 -23 8 -23 8 0 15 7 15 15 0 16 -12 20 -23 8z"/>
<path d="M6540 5335 c0 -8 5 -15 10 -15 6 0 10 7 10 15 0 8 -4 15 -10 15 -5 0
-10 -7 -10 -15z"/>
<path d="M5899 4983 c-13 -16 -12 -17 4 -4 9 7 17 15 17 17 0 8 -8 3 -21 -13z"/>
<path d="M5860 4928 c-15 -21 -17 -28 -6 -19 16 13 41 51 33 51 -2 0 -14 -15
-27 -32z"/>
<path d="M5745 4800 c-3 -5 -1 -10 4 -10 6 0 11 5 11 10 0 6 -2 10 -4 10 -3 0
-8 -4 -11 -10z"/>
<path d="M7178 5378 c5 -5 16 -8 23 -6 8 3 3 7 -10 11 -17 4 -21 3 -13 -5z"/>
<path d="M7547 5209 c13 -13 67 -23 60 -12 -4 6 -20 13 -37 15 -17 3 -27 1
-23 -3z"/>
<path d="M4305 3870 c-3 -5 -1 -10 4 -10 6 0 11 5 11 10 0 6 -2 10 -4 10 -3 0
-8 -4 -11 -10z"/>
<path d="M4138 3853 c7 -3 16 -2 19 1 4 3 -2 6 -13 5 -11 0 -14 -3 -6 -6z"/>
<path d="M2911 3924 c0 -11 3 -14 6 -6 3 7 2 16 -1 19 -3 4 -6 -2 -5 -13z"/>
<path d="M2886 3844 c-4 -14 -5 -28 -3 -31 3 -2 8 8 11 23 4 14 5 28 3 31 -3
2 -8 -8 -11 -23z"/>
<path d="M6350 1219 c0 -5 5 -7 10 -4 6 3 10 8 10 11 0 2 -4 4 -10 4 -5 0 -10
-5 -10 -11z"/>
<path d="M5847 1189 c7 -7 15 -10 18 -7 3 3 -2 9 -12 12 -14 6 -15 5 -6 -5z"/>
<path d="M7044 9559 c1 -16 7 -33 14 -39 6 -5 10 -7 7 -4 -2 4 2 13 10 21 8 8
15 20 15 26 0 7 -4 6 -10 -3 -9 -13 -10 -13 -11 0 -1 8 -1 18 -1 21 1 3 -5 6
-12 6 -8 0 -13 -11 -12 -28z m19 -4 c4 -8 3 -16 -1 -19 -4 -3 -9 4 -9 15 -2
23 3 25 10 4z"/>
<path d="M7272 9540 c0 -14 2 -19 5 -12 2 6 2 18 0 25 -3 6 -5 1 -5 -13z"/>
<path d="M7040 9474 c0 -8 -4 -13 -9 -10 -5 3 -11 -3 -14 -14 -7 -26 9 -26 23
0 6 11 18 20 26 20 8 0 12 5 9 10 -10 16 -35 12 -35 -6z"/>
<path d="M8975 9464 c-9 -15 -12 -23 -6 -20 11 7 35 46 28 46 -3 0 -12 -12
-22 -26z"/>
<path d="M8944 9418 c-4 -7 -14 -24 -22 -38 -14 -24 -13 -24 3 -5 20 24 37 55
31 55 -3 0 -8 -6 -12 -12z"/>
<path d="M2912 9353 c12 -12 23 -23 24 -23 1 0 -3 11 -9 23 -6 13 -17 24 -24
24 -9 0 -5 -9 9 -24z"/>
<path d="M7986 9289 c-10 -31 -16 -69 -12 -69 7 0 26 73 21 78 -3 3 -7 -1 -9
-9z"/>
<path d="M7945 9154 c-8 -33 -20 -74 -25 -92 -5 -19 -6 -40 -3 -48 3 -8 0 -14
-6 -14 -6 0 -11 -8 -11 -17 0 -40 -23 -96 -53 -130 -18 -20 -26 -34 -19 -29 6
4 12 3 12 -3 0 -5 -6 -11 -14 -13 -12 -3 -12 -5 0 -16 12 -11 14 -10 14 3 0 9
4 13 10 10 5 -3 18 11 27 32 10 21 22 41 27 44 4 4 9 28 11 55 2 36 8 50 22
55 10 4 12 8 6 8 -18 1 -16 19 8 117 24 96 19 128 -6 38z"/>
<path d="M2120 9135 c18 -46 40 -85 50 -85 5 0 17 -15 26 -32 25 -51 127 -208
134 -208 4 0 15 -18 25 -40 10 -22 21 -40 25 -40 14 0 -14 75 -49 130 -47 76
-82 129 -186 278 -22 30 -37 29 -25 -3z"/>
<path d="M7906 9135 c-9 -26 -7 -32 5 -12 6 10 9 21 6 23 -2 3 -7 -2 -11 -11z"/>
<path d="M7871 9024 c0 -11 3 -14 6 -6 3 7 2 16 -1 19 -3 4 -6 -2 -5 -13z"/>
<path d="M8455 9020 c3 -5 8 -10 11 -10 2 0 4 5 4 10 0 6 -5 10 -11 10 -5 0
-7 -4 -4 -10z"/>
<path d="M2495 9012 c-11 -11 -4 -84 10 -112 9 -16 29 -36 45 -45 16 -8 34
-23 40 -32 8 -13 13 -15 17 -5 4 10 8 10 19 1 8 -7 17 -9 21 -5 3 3 1 6 -6 6
-7 0 -9 5 -6 10 3 6 2 10 -3 10 -4 0 -9 12 -9 28 -3 56 -7 70 -20 65 -7 -3
-33 15 -58 39 -25 25 -47 43 -50 40z"/>
<path d="M8363 8995 c0 -7 6 -11 14 -8 7 3 13 6 13 8 0 2 -6 5 -13 8 -8 3 -14
-1 -14 -8z"/>
<path d="M3045 8960 c-3 -6 1 -7 9 -4 18 7 21 14 7 14 -6 0 -13 -4 -16 -10z"/>
<path d="M8387 8943 c-9 -9 -9 -41 1 -46 4 -3 7 8 7 24 0 16 0 29 -1 29 0 0
-4 -3 -7 -7z"/>
<path d="M8296 8912 c-7 -12 12 -38 21 -28 4 5 2 11 -5 13 -6 3 -10 9 -6 14 3
5 3 9 0 9 -3 0 -7 -4 -10 -8z"/>
<path d="M8517 8905 c-7 -16 -10 -17 -18 -5 -9 12 -10 12 -5 -2 3 -10 1 -18
-4 -18 -5 0 -7 -7 -4 -15 4 -11 0 -15 -16 -15 -17 0 -21 4 -17 20 4 15 0 20
-13 20 -13 0 -17 -5 -13 -20 4 -15 0 -20 -16 -20 -12 0 -19 5 -16 10 3 6 2 10
-4 10 -5 0 -13 -4 -16 -10 -3 -5 -2 -10 3 -10 6 0 12 -7 15 -14 4 -10 1 -13
-8 -10 -15 6 -35 -50 -35 -101 0 -28 -1 -28 -17 -12 -16 16 -16 19 -3 27 12 8
12 12 2 18 -8 5 -11 20 -8 35 2 15 0 29 -5 32 -15 10 -10 25 6 19 10 -4 15 0
15 12 0 11 -4 15 -8 9 -11 -15 -34 -18 -42 -5 -5 8 -9 4 -12 -8 -4 -14 -2 -19
7 -16 18 7 23 -14 16 -71 -5 -44 -9 -50 -28 -49 -25 1 -22 -7 10 -43 11 -13
16 -23 10 -23 -6 0 -14 -8 -17 -17 -6 -15 -5 -15 13 1 11 10 18 22 16 26 -3 4
3 14 12 21 9 8 17 12 17 10 1 -2 15 4 31 13 17 10 22 15 12 12 -15 -5 -18 -1
-15 22 2 20 8 27 26 27 12 0 21 -4 20 -10 -2 -5 -6 -9 -10 -7 -5 1 -8 -2 -8
-8 0 -5 5 -10 10 -10 15 0 70 52 65 61 -3 4 -2 9 3 11 4 1 19 18 32 37 13 20
18 31 9 27 -7 -4 -6 -1 4 8 10 8 17 23 15 33 -3 17 -4 17 -11 -2z m-127 -99
c0 -3 -4 -8 -10 -11 -5 -3 -10 -1 -10 4 0 6 5 11 10 11 6 0 10 -2 10 -4z m40
-18 c0 -9 4 -8 10 2 5 8 10 10 10 4 0 -6 -7 -17 -15 -24 -14 -12 -16 -10 -14
6 0 4 -5 11 -13 15 -10 7 -9 9 5 9 9 0 17 -6 17 -12z m-110 -81 c0 -23 -22
-38 -37 -26 -7 7 -13 16 -13 22 0 6 7 2 16 -9 12 -15 14 -15 11 -2 -6 17 0 28
15 28 4 0 8 -6 8 -13z"/>
<path d="M3025 8870 c-3 -5 -4 -10 -1 -10 2 0 12 -3 20 -6 12 -5 15 -2 10 10
-7 18 -20 21 -29 6z"/>
<path d="M8250 8851 c-6 -12 -7 -21 -1 -21 10 0 24 30 17 37 -2 3 -9 -5 -16
-16z"/>
<path d="M8270 8810 c-9 -6 -10 -10 -3 -10 6 0 15 5 18 10 8 12 4 12 -15 0z"/>
<path d="M8216 8793 c-6 -14 -5 -15 5 -6 7 7 10 15 7 18 -3 3 -9 -2 -12 -12z"/>
<path d="M8180 8753 c0 -6 5 -15 10 -18 16 -10 2 -24 -20 -20 -13 2 -20 -2
-20 -11 0 -10 5 -12 13 -7 22 13 39 13 28 -1 -6 -7 -7 -17 -3 -21 4 -5 2 -5
-4 -2 -7 4 -15 0 -18 -9 -10 -26 0 -28 22 -6 11 11 17 23 14 27 -4 4 2 5 12 3
14 -2 20 4 23 25 3 25 1 28 -16 22 -13 -4 -23 0 -30 12 -6 10 -11 13 -11 6z
m47 -42 c-1 -16 -4 -17 -15 -9 -10 9 -11 13 0 19 17 11 17 12 15 -10z"/>
<path d="M7890 8716 c7 -7 13 -7 20 0 6 6 3 10 -10 10 -13 0 -16 -4 -10 -10z"/>
<path d="M8123 8681 c-1 -18 4 -31 12 -35 8 -3 15 0 15 6 0 6 8 21 18 32 16
20 16 20 -1 7 -15 -12 -19 -12 -30 3 -10 14 -12 13 -14 -13z"/>
<path d="M7907 8662 c1 -8 3 -19 3 -25 0 -7 4 -6 10 3 12 19 13 33 1 26 -5 -4
-11 -3 -14 1 -2 5 -2 2 0 -5z"/>
<path d="M7696 8661 c-5 -7 -5 -15 -2 -18 3 -4 6 0 6 7 0 9 5 8 13 -5 12 -15
15 -16 22 -4 5 8 5 11 0 7 -4 -4 -13 0 -20 9 -9 12 -14 13 -19 4z"/>
<path d="M8084 8645 c-4 -9 -4 -18 -2 -21 9 -8 39 8 35 19 -6 18 -27 20 -33 2z"/>
<path d="M7938 8645 c-4 -4 -4 -13 -1 -20 5 -15 33 -9 33 7 0 5 -4 7 -9 4 -5
-4 -11 -1 -13 5 -2 5 -6 7 -10 4z"/>
<path d="M7822 8631 c-11 -7 -10 -9 3 -14 9 -4 14 -3 10 2 -3 5 1 12 7 14 7 3
9 6 3 6 -5 0 -16 -3 -23 -8z"/>
<path d="M2416 8617 c3 -10 9 -15 12 -12 3 3 0 11 -7 18 -10 9 -11 8 -5 -6z"/>
<path d="M8140 8609 c0 -5 5 -7 10 -4 6 3 10 8 10 11 0 2 -4 4 -10 4 -5 0 -10
-5 -10 -11z"/>
<path d="M7700 8560 c-9 -6 -10 -10 -3 -10 6 0 15 5 18 10 8 12 4 12 -15 0z"/>
<path d="M2481 8544 c0 -11 3 -14 6 -6 3 7 2 16 -1 19 -3 4 -6 -2 -5 -13z"/>
<path d="M7780 8553 c0 -5 5 -15 10 -23 8 -12 10 -11 10 8 0 12 -4 22 -10 22
-5 0 -10 -3 -10 -7z"/>
<path d="M8081 8494 c0 -11 3 -14 6 -6 3 7 2 16 -1 19 -3 4 -6 -2 -5 -13z"/>
<path d="M8051 8412 c-1 -7 -5 -10 -11 -7 -5 3 -10 1 -10 -6 0 -6 -8 -9 -20
-6 -11 3 -18 1 -15 -4 3 -4 -9 -13 -27 -18 -23 -6 -27 -10 -13 -11 11 -1 30
-3 42 -4 14 -2 23 4 27 17 4 16 8 18 18 9 11 -8 17 -6 27 10 7 11 8 17 3 14
-6 -3 -13 0 -15 6 -4 10 -6 10 -6 0z"/>
<path d="M1420 8234 c0 -16 10 -45 23 -66 28 -46 98 -128 109 -128 13 0 -18
55 -52 94 -17 18 -30 45 -30 58 0 14 -11 35 -25 48 l-25 23 0 -29z"/>
<path d="M7970 8250 c0 -5 5 -10 10 -10 6 0 10 5 10 10 0 6 -4 10 -10 10 -5 0
-10 -4 -10 -10z"/>
<path d="M8312 7981 c-10 -6 -7 -10 12 -13 16 -3 25 -1 23 5 -5 15 -20 18 -35
8z"/>
<path d="M8315 7950 c-3 -5 -1 -10 4 -10 6 0 11 5 11 10 0 6 -2 10 -4 10 -3 0
-8 -4 -11 -10z"/>
<path d="M9150 7929 c0 -11 5 -17 10 -14 6 3 10 13 10 21 0 8 -4 14 -10 14 -5
0 -10 -9 -10 -21z"/>
<path d="M1796 7891 c-6 -9 30 -51 43 -51 20 1 29 16 18 31 -15 20 -53 33 -61
20z"/>
<path d="M8451 7874 c0 -11 3 -14 6 -6 3 7 2 16 -1 19 -3 4 -6 -2 -5 -13z"/>
<path d="M1613 7308 c-56 -82 -124 -191 -160 -258 -23 -41 -15 -38 14 7 22 33
-19 -61 -57 -132 -21 -38 -45 -94 -54 -124 -18 -63 -19 -71 -8 -71 9 0 62 150
62 175 0 7 6 20 13 27 15 16 97 174 97 189 0 5 16 35 35 65 19 30 35 56 35 58
0 3 18 32 41 66 22 34 39 64 36 66 -2 2 -27 -28 -54 -68z m-122 -221 c-10 -9
-11 -8 -5 6 3 10 9 15 12 12 3 -3 0 -11 -7 -18z"/>
<path d="M1545 7154 c-9 -14 -14 -28 -12 -31 3 -3 13 9 22 26 19 38 14 41 -10
5z"/>
<path d="M1409 6978 c-7 -13 -19 -34 -27 -48 -14 -24 -13 -24 3 -5 20 24 48
75 41 75 -3 0 -11 -10 -17 -22z"/>
<path d="M9010 6890 c0 -5 5 -10 11 -10 5 0 7 5 4 10 -3 6 -8 10 -11 10 -2 0
-4 -4 -4 -10z"/>
<path d="M678 6860 c-28 -28 -30 -35 -26 -81 7 -66 38 -99 100 -106 40 -5 47
-2 71 26 33 39 43 91 27 132 -17 41 -47 59 -98 59 -35 0 -49 -6 -74 -30z"/>
<path d="M8987 6850 c-3 -12 0 -20 7 -20 6 0 12 9 12 20 0 11 -3 20 -7 20 -4
0 -9 -9 -12 -20z"/>
<path d="M9020 6860 c0 -5 5 -10 11 -10 5 0 7 5 4 10 -3 6 -8 10 -11 10 -2 0
-4 -4 -4 -10z"/>
<path d="M9057 6849 c-7 -28 -6 -31 12 -20 9 6 10 14 4 26 -9 15 -11 15 -16
-6z"/>
<path d="M1341 6829 c-6 -18 -9 -34 -7 -36 2 -2 9 10 15 28 6 18 9 34 7 36 -2
2 -9 -10 -15 -28z"/>
<path d="M9100 6800 c0 -5 5 -10 11 -10 6 0 9 -6 6 -14 -3 -8 1 -17 10 -20 21
-9 31 3 13 14 -8 6 -11 10 -6 10 11 0 -14 30 -25 30 -5 0 -9 -4 -9 -10z"/>
<path d="M1320 6761 c0 -10 -6 -37 -14 -59 -14 -39 -14 -40 9 -44 19 -4 24 0
29 25 3 17 4 32 1 35 -3 3 -5 0 -5 -6 0 -7 -4 -12 -9 -12 -5 0 -7 18 -4 40 3
22 3 40 -1 40 -3 0 -6 -8 -6 -19z"/>
<path d="M1053 6734 c2 -29 26 -64 40 -57 4 2 7 -4 7 -14 0 -14 2 -15 9 -4 7
11 11 10 20 -5 8 -15 13 -16 19 -6 5 7 15 12 22 10 7 -2 13 8 14 24 1 14 -1
25 -5 22 -4 -2 -18 5 -32 16 -14 11 -32 17 -41 14 -10 -4 -25 1 -36 11 -19 17
-19 17 -17 -11z m92 -24 c17 -14 16 -15 -6 -21 -21 -5 -68 16 -69 31 0 12 58
4 75 -10z"/>
<path d="M380 6730 c8 -5 20 -10 25 -10 6 0 3 5 -5 10 -8 5 -19 10 -25 10 -5
0 -3 -5 5 -10z"/>
<path d="M1217 6669 c7 -7 15 -10 18 -7 3 3 -2 9 -12 12 -14 6 -15 5 -6 -5z"/>
<path d="M836 6650 c11 -11 74 -32 74 -25 0 3 -13 11 -30 20 -34 17 -59 20
-44 5z"/>
<path d="M1075 6640 c3 -5 8 -10 11 -10 2 0 4 5 4 10 0 6 -5 10 -11 10 -5 0
-7 -4 -4 -10z"/>
<path d="M905 6607 c-11 -7 -22 -21 -23 -32 -4 -18 -2 -17 15 4 19 23 20 23
46 6 29 -19 33 -15 17 16 -12 21 -25 23 -55 6z"/>
<path d="M1020 6580 c0 -5 5 -10 11 -10 5 0 7 5 4 10 -3 6 -8 10 -11 10 -2 0
-4 -4 -4 -10z"/>
<path d="M977 6534 c3 -7 9 -14 14 -14 14 0 10 17 -5 23 -10 4 -13 1 -9 -9z"/>
<path d="M9196 6456 c6 -16 34 -30 34 -18 0 5 -5 13 -12 20 -16 16 -29 15 -22
-2z"/>
<path d="M9288 6375 c6 -12 21 -32 34 -45 13 -14 36 -44 51 -67 26 -41 57 -57
57 -30 0 7 -34 46 -76 87 -42 41 -72 66 -66 55z"/>
<path d="M942 6361 c-11 -7 -11 -9 0 -14 9 -3 15 1 15 9 0 8 -1 14 -1 14 -1 0
-7 -4 -14 -9z"/>
<path d="M9157 6283 c-10 -9 -9 -23 2 -23 5 0 11 7 15 15 5 15 -5 20 -17 8z"/>
<path d="M9228 6163 c7 -3 16 -2 19 1 4 3 -2 6 -13 5 -11 0 -14 -3 -6 -6z"/>
<path d="M710 6041 c0 -12 42 -42 49 -36 5 6 -29 45 -41 45 -4 0 -8 -4 -8 -9z"/>
<path d="M820 6026 c0 -9 7 -19 15 -23 25 -9 27 2 5 22 -18 17 -20 17 -20 1z"/>
<path d="M9471 6017 c-9 -11 -8 -17 5 -28 13 -11 17 -10 25 2 17 28 -9 51 -30
26z"/>
<path d="M174 5939 c-7 -13 21 -39 42 -39 25 0 22 17 -6 33 -21 13 -31 14 -36
6z"/>
<path d="M505 5900 c11 -5 27 -9 35 -9 13 -1 13 0 0 9 -8 5 -24 9 -35 9 l-20
0 20 -9z"/>
<path d="M567 5769 c7 -7 15 -10 18 -7 3 3 -2 9 -12 12 -14 6 -15 5 -6 -5z"/>
<path d="M180 5695 c0 -8 9 -15 20 -15 13 0 18 5 14 15 -4 8 -12 15 -20 15 -8
0 -14 -7 -14 -15z"/>
<path d="M9828 5683 c7 -3 16 -2 19 1 4 3 -2 6 -13 5 -11 0 -14 -3 -6 -6z"/>
<path d="M9458 5663 c6 -2 18 -2 25 0 6 3 1 5 -13 5 -14 0 -19 -2 -12 -5z"/>
<path d="M9500 5650 c0 -5 5 -10 11 -10 5 0 7 5 4 10 -3 6 -8 10 -11 10 -2 0
-4 -4 -4 -10z"/>
<path d="M600 5630 c-40 -6 -37 -7 29 -8 41 -1 72 0 70 2 -11 9 -58 12 -99 6z"/>
<path d="M710 5620 c0 -5 5 -10 10 -10 6 0 10 5 10 10 0 6 -4 10 -10 10 -5 0
-10 -4 -10 -10z"/>
<path d="M9805 5600 c-27 -7 -28 -8 -5 -8 14 0 34 3 45 8 25 11 2 11 -40 0z"/>
<path d="M385 5290 c3 -5 12 -7 20 -3 21 7 19 13 -6 13 -11 0 -18 -4 -14 -10z"/>
<path d="M1100 5121 c0 -5 5 -13 10 -16 6 -3 10 -2 10 4 0 5 -4 13 -10 16 -5
3 -10 2 -10 -4z"/>
<path d="M9905 5080 c3 -5 8 -10 11 -10 2 0 4 5 4 10 0 6 -5 10 -11 10 -5 0
-7 -4 -4 -10z"/>
<path d="M1110 5050 c0 -5 5 -10 10 -10 6 0 10 5 10 10 0 6 -4 10 -10 10 -5 0
-10 -4 -10 -10z"/>
<path d="M9336 4677 c3 -10 9 -15 12 -12 3 3 0 11 -7 18 -10 9 -11 8 -5 -6z"/>
<path d="M9590 4675 c0 -5 9 -23 20 -40 11 -16 20 -25 20 -20 0 6 -9 24 -20
40 -11 17 -20 26 -20 20z"/>
<path d="M9432 4643 c2 -10 11 -19 21 -21 16 -3 17 -1 7 17 -13 25 -33 28 -28
4z"/>
<path d="M9576 4265 c4 -8 12 -15 19 -15 7 0 15 7 19 15 4 11 -1 15 -19 15
-18 0 -23 -4 -19 -15z"/>
<path d="M1326 3977 c3 -10 9 -15 12 -12 3 3 0 11 -7 18 -10 9 -11 8 -5 -6z"/>
<path d="M1255 3850 c-7 -12 2 -30 16 -30 12 0 12 27 0 35 -5 3 -12 1 -16 -5z"/>
<path d="M9110 3788 c0 -25 3 -29 10 -18 13 20 13 50 0 50 -5 0 -10 -15 -10
-32z"/>
<path d="M1204 3789 c-15 -5 -12 -8 16 -13 19 -4 43 -10 52 -12 13 -4 16 -1
12 9 -6 17 -52 26 -80 16z"/>
<path d="M930 3786 c0 -2 7 -7 16 -10 8 -3 12 -2 9 4 -6 10 -25 14 -25 6z"/>
<path d="M1125 3650 c3 -5 8 -10 11 -10 2 0 4 5 4 10 0 6 -5 10 -11 10 -5 0
-7 -4 -4 -10z"/>
<path d="M1050 3570 c0 -5 7 -10 15 -10 8 0 15 5 15 10 0 6 -7 10 -15 10 -8 0
-15 -4 -15 -10z"/>
<path d="M1157 3483 c-16 -8 -26 -17 -24 -20 3 -2 14 0 25 6 12 6 30 11 41 11
11 0 23 5 26 10 9 15 -36 10 -68 -7z"/>
<path d="M8630 3470 c0 -5 5 -10 10 -10 6 0 10 5 10 10 0 6 -4 10 -10 10 -5 0
-10 -4 -10 -10z"/>
<path d="M1225 3460 c-16 -7 -17 -9 -3 -9 9 -1 20 4 23 9 7 11 7 11 -20 0z"/>
<path d="M1081 3439 c-13 -5 -22 -12 -19 -14 6 -6 58 12 58 20 0 7 -11 5 -39
-6z"/>
<path d="M9221 3404 c0 -11 3 -14 6 -6 3 7 2 16 -1 19 -3 4 -6 -2 -5 -13z"/>
<path d="M1080 3370 c0 -5 6 -10 14 -10 8 0 18 5 21 10 3 6 -3 10 -14 10 -12
0 -21 -4 -21 -10z"/>
<path d="M1025 3360 c-3 -5 -2 -10 4 -10 5 0 13 5 16 10 3 6 2 10 -4 10 -5 0
-13 -4 -16 -10z"/>
<path d="M8811 3346 c-19 -20 -20 -24 -7 -29 9 -4 15 -1 13 6 -3 16 44 22 54
5 5 -7 9 -8 9 -3 0 9 -35 45 -43 45 -2 0 -14 -11 -26 -24z"/>
<path d="M1183 3353 c9 -2 23 -2 30 0 6 3 -1 5 -18 5 -16 0 -22 -2 -12 -5z"/>
<path d="M1121 3326 c-10 -12 -8 -13 8 -9 12 3 18 9 15 14 -7 12 -10 11 -23
-5z"/>
<path d="M1141 3295 c-25 -12 -46 -30 -47 -39 -1 -9 1 -16 5 -16 14 0 91 60
91 70 0 6 -1 9 -2 9 -2 -1 -23 -12 -47 -24z"/>
<path d="M8705 3080 c-3 -5 1 -10 9 -10 8 0 18 5 21 10 3 6 -1 10 -9 10 -8 0
-18 -4 -21 -10z"/>
<path d="M9137 3073 c-14 -13 -6 -21 23 -25 32 -5 37 1 18 20 -13 13 -31 16
-41 5z"/>
<path d="M1261 3014 c0 -11 3 -14 6 -6 3 7 2 16 -1 19 -3 4 -6 -2 -5 -13z"/>
<path d="M9094 2961 c11 -11 23 -21 28 -21 14 0 -1 19 -25 31 -22 12 -22 12
-3 -10z"/>
<path d="M9146 2929 c3 -5 12 -9 21 -9 19 0 9 13 -12 16 -8 1 -13 -2 -9 -7z"/>
<path d="M9188 2903 c7 -3 16 -2 19 1 4 3 -2 6 -13 5 -11 0 -14 -3 -6 -6z"/>
<path d="M9310 2856 c0 -3 9 -10 20 -16 11 -6 20 -8 20 -6 0 3 -9 10 -20 16
-11 6 -20 8 -20 6z"/>
<path d="M8440 2489 c0 -5 5 -7 10 -4 6 3 10 8 10 11 0 2 -4 4 -10 4 -5 0 -10
-5 -10 -11z"/>
<path d="M8420 2455 c0 -8 4 -15 10 -15 5 0 7 7 4 15 -4 8 -8 15 -10 15 -2 0
-4 -7 -4 -15z"/>
<path d="M8390 2402 c0 -5 7 -13 16 -16 10 -4 14 -1 12 6 -5 15 -28 23 -28 10z"/>
<path d="M8514 2292 c13 -26 47 -85 75 -131 55 -91 59 -101 37 -101 -21 0 -46
-40 -46 -73 0 -33 17 -70 29 -62 5 3 11 -2 15 -10 11 -31 106 -7 120 30 12 32
6 82 -12 98 -10 9 -32 19 -48 23 -34 6 -30 1 -120 160 -67 117 -93 151 -50 66z"/>
<path d="M1389 2261 c-29 -30 -37 -51 -19 -51 5 0 14 9 20 20 6 11 17 20 24
20 8 0 16 9 19 20 7 28 -10 25 -44 -9z"/>
<path d="M8410 2270 c0 -11 3 -20 8 -20 4 0 18 -16 31 -35 13 -20 26 -34 28
-31 4 4 -56 106 -63 106 -2 0 -4 -9 -4 -20z"/>
<path d="M1678 2263 c7 -3 16 -2 19 1 4 3 -2 6 -13 5 -11 0 -14 -3 -6 -6z"/>
<path d="M1560 2061 c0 -5 9 -7 20 -4 11 3 20 7 20 9 0 2 -9 4 -20 4 -11 0
-20 -4 -20 -9z"/>
<path d="M1729 2054 c-12 -14 -11 -16 5 -13 11 2 21 10 24 17 5 17 -13 15 -29
-4z"/>
<path d="M1490 2000 c-13 -8 -12 -10 3 -10 9 0 17 5 17 10 0 12 -1 12 -20 0z"/>
<path d="M2288 1973 c0 -10 0 -27 1 -38 2 -21 -25 -128 -40 -157 -5 -10 -6
-25 -2 -34 4 -11 3 -15 -4 -11 -12 8 -50 -90 -39 -100 3 -4 6 -1 6 6 0 7 5 9
12 5 7 -4 8 -3 4 5 -4 6 -4 25 -1 43 5 19 10 26 15 19 4 -7 17 19 31 63 20 62
27 75 42 70 14 -4 17 1 17 30 0 26 -4 36 -16 36 -13 0 -15 7 -9 40 4 26 3 40
-4 40 -6 0 -12 -8 -13 -17z"/>
<path d="M2640 1970 c0 -5 5 -10 10 -10 6 0 10 5 10 10 0 6 -4 10 -10 10 -5 0
-10 -4 -10 -10z"/>
<path d="M2333 1963 c-18 -6 -16 -33 1 -33 8 0 17 -6 19 -12 4 -9 5 -8 6 2 0
26 -13 47 -26 43z"/>
<path d="M2560 1910 c0 -5 5 -10 11 -10 5 0 7 5 4 10 -3 6 -8 10 -11 10 -2 0
-4 -4 -4 -10z"/>
<path d="M8793 1865 c13 -22 33 -58 44 -81 50 -104 148 -264 164 -269 49 -16
53 43 7 106 -32 45 -138 172 -203 244 l-36 40 24 -40z"/>
<path d="M2676 1861 c-4 -7 -5 -15 -2 -18 9 -9 19 4 14 18 -4 11 -6 11 -12 0z"/>
<path d="M2111 1844 c0 -11 3 -14 6 -6 3 7 2 16 -1 19 -3 4 -6 -2 -5 -13z"/>
<path d="M8180 1813 c0 -5 5 -15 10 -23 8 -12 10 -11 10 8 0 12 -4 22 -10 22
-5 0 -10 -3 -10 -7z"/>
<path d="M7210 1660 c0 -5 5 -10 10 -10 6 0 10 5 10 10 0 6 -4 10 -10 10 -5 0
-10 -4 -10 -10z"/>
<path d="M2457 1644 c-8 -8 1 -24 14 -24 5 0 9 7 9 15 0 15 -12 20 -23 9z"/>
<path d="M1852 1601 c-12 -21 -22 -47 -21 -57 0 -11 11 5 25 35 29 64 27 77
-4 22z"/>
<path d="M2183 1608 c-17 -23 -55 -120 -49 -126 12 -11 27 15 46 76 19 64 19
71 3 50z"/>
<path d="M1801 1511 c-8 -5 -9 -11 -3 -15 5 -3 15 1 22 9 14 16 3 20 -19 6z"/>
<path d="M2338 1488 c-20 -32 -29 -58 -19 -58 11 0 47 68 39 75 -3 3 -12 -5
-20 -17z"/>
<path d="M6970 1481 c0 -6 4 -13 10 -16 6 -3 7 1 4 9 -7 18 -14 21 -14 7z"/>
<path d="M3707 1474 c-14 -14 -7 -25 13 -19 28 9 125 -26 107 -38 -7 -5 -3 -7
14 -3 14 3 34 0 45 -8 10 -7 33 -16 49 -19 29 -6 30 -6 5 5 -14 7 -27 15 -30
19 -3 3 -23 12 -45 19 -22 7 -49 18 -61 25 -27 17 -87 29 -97 19z"/>
<path d="M3645 1460 c-3 -5 -1 -10 4 -10 6 0 11 5 11 10 0 6 -2 10 -4 10 -3 0
-8 -4 -11 -10z"/>
<path d="M2104 1429 c-15 -25 -42 -129 -34 -134 13 -8 18 6 34 79 13 65 14 76
0 55z"/>
<path d="M2217 1396 c-27 -21 -27 -24 -12 -40 23 -22 38 -20 65 8 45 49 0 76
-53 32z"/>
<path d="M6854 1386 c-3 -9 -10 -14 -14 -11 -4 3 -10 -4 -13 -15 -9 -33 10
-32 27 2 9 17 14 33 11 36 -2 3 -7 -3 -11 -12z"/>
<path d="M1314 1329 c-31 -15 -75 -89 -68 -114 13 -46 40 -70 78 -69 42 2 73
25 92 71 19 45 18 57 -12 92 -27 32 -53 38 -90 20z"/>
<path d="M3440 1336 c0 -2 7 -6 15 -10 8 -3 15 -1 15 4 0 6 -7 10 -15 10 -8 0
-15 -2 -15 -4z"/>
<path d="M4275 1300 c27 -12 43 -12 25 0 -8 5 -22 9 -30 9 -10 0 -8 -3 5 -9z"/>
<path d="M8602 1278 c-28 -28 0 -193 40 -235 26 -28 34 -29 48 -3 12 22 -16
117 -54 185 -13 22 -21 46 -19 53 6 15 0 15 -15 0z"/>
<path d="M3440 1255 c7 -9 15 -13 18 -10 3 2 11 -3 19 -13 12 -16 13 -16 7 1
-6 16 -33 37 -50 37 -3 0 -1 -7 6 -15z"/>
<path d="M4285 1260 c3 -5 8 -10 11 -10 2 0 4 5 4 10 0 6 -5 10 -11 10 -5 0
-7 -4 -4 -10z"/>
<path d="M1981 1194 c0 -11 3 -14 6 -6 3 7 2 16 -1 19 -3 4 -6 -2 -5 -13z"/>
<path d="M4728 1184 c-3 -5 -2 -18 2 -28 3 -11 9 -15 12 -10 3 5 2 18 -2 28
-3 11 -9 15 -12 10z"/>
<path d="M6744 1140 c-1 -16 3 -27 7 -24 11 6 12 54 2 54 -5 0 -8 -13 -9 -30z"/>
<path d="M4308 1153 c6 -2 12 -11 12 -19 0 -8 4 -14 9 -14 5 0 7 9 4 20 -3 11
-13 20 -22 19 -10 0 -11 -2 -3 -6z"/>
<path d="M4345 1099 c-4 -6 -5 -12 -2 -15 2 -3 7 2 10 11 7 17 1 20 -8 4z"/>
<path d="M4700 1099 c0 -5 5 -7 10 -4 6 3 10 8 10 11 0 2 -4 4 -10 4 -5 0 -10
-5 -10 -11z"/>
<path d="M4757 1090 c-10 -12 -23 -17 -34 -13 -16 5 -17 4 -3 -11 13 -14 20
-14 43 -4 27 13 36 28 16 28 -5 0 -7 5 -4 10 10 17 0 11 -18 -10z"/>
<path d="M6710 1099 c0 -5 5 -7 10 -4 6 3 10 8 10 11 0 2 -4 4 -10 4 -5 0 -10
-5 -10 -11z"/>
<path d="M6670 1080 c0 -5 4 -10 8 -10 4 0 7 -17 5 -37 l-2 -38 11 32 c11 33
6 63 -12 63 -5 0 -10 -4 -10 -10z"/>
<path d="M4455 1069 c-4 -6 -5 -12 -2 -15 2 -3 7 2 10 11 7 17 1 20 -8 4z"/>
<path d="M4759 1039 c-11 -7 -11 -9 -1 -9 18 0 43 -26 40 -41 -4 -17 19 -22
25 -6 8 20 -46 68 -64 56z"/>
<path d="M4188 1010 c2 -16 6 -30 8 -30 2 0 4 14 4 30 0 17 -4 30 -8 30 -5 0
-7 -13 -4 -30z"/>
<path d="M4690 1025 c-9 -11 -9 -21 -1 -42 8 -21 10 -22 7 -5 -2 12 2 29 10
37 8 7 10 16 5 19 -5 3 -14 -1 -21 -9z"/>
<path d="M6630 1020 c-13 -8 -12 -10 3 -10 9 0 17 5 17 10 0 12 -1 12 -20 0z"/>
<path d="M4001 974 c0 -11 3 -14 6 -6 3 7 2 16 -1 19 -3 4 -6 -2 -5 -13z"/>
<path d="M7326 973 c-6 -14 -5 -15 5 -6 7 7 10 15 7 18 -3 3 -9 -2 -12 -12z"/>
</g>
</svg>
